<?xml version="1.0" standalone="no"?>
<!DOCTYPE svg PUBLIC "-//W3C//DTD SVG 1.1//EN" "http://www.w3.org/Graphics/SVG/1.1/DTD/svg11.dtd" >
<!--
2017-6-21: Created with FontForge (http://fontforge.org)
-->
<svg xmlns="http://www.w3.org/2000/svg" xmlns:xlink="http://www.w3.org/1999/xlink" version="1.1">
<metadata>
Created by FontForge 20161004 at Wed Jun 21 08:31:03 2017
 By dimal

</metadata>
<defs>
<font id="font-wso2" horiz-adv-x="512" >
  <font-face 
    font-family="font-wso2"
    font-weight="400"
    font-stretch="normal"
    units-per-em="512"
    panose-1="2 0 5 3 0 0 0 0 0 0"
    ascent="448"
    descent="-64"
    bbox="-0.000474263 -67.9334 537.601 451.688"
    underline-thickness="25.6"
    underline-position="-51.2"
    unicode-range="U+E600-E731"
  />
    <missing-glyph />
    <glyph glyph-name="abort" unicode="&#xe72a;" 
d="M401.554 211.384c-4.75488 7.67871 -3.29297 17.1875 3.29199 24.1367l41.6904 41.3252h-69.8506c13.8975 -21.9414 21.9414 -47.9082 21.9414 -75.7031c0 -27.4287 -7.67773 -53.0283 -21.209 -74.9707h85.209c2.92676 0.366211 10.6074 1.09863 16.458 -4.38867
c2.56055 -2.19434 5.85254 -6.58203 6.2168 -13.8975v-1.0957v-0.732422c-1.82812 -18.2852 -17.1875 -17.9189 -21.9424 -17.9189h-120.319c-24.1377 -19.0186 -54.127 -29.9893 -87.04 -29.9893c-32.915 0 -63.2695 11.3369 -87.4062 29.9893h-79.7256h-23.7725
l41.3262 -41.3262c2.92676 -2.92676 5.12109 -6.94824 6.2168 -10.6074c1.83008 -8.41016 -2.19434 -16.8213 -10.2393 -20.8438c-7.31445 -3.6582 -15.7256 -2.19629 -21.5781 3.29004l-74.2383 73.875c-4.38867 4.38867 -6.58301 9.50977 -6.58301 14.6279
c0 5.12012 2.19434 10.2412 6.58301 14.6289l73.1426 73.1436c4.02246 4.02148 9.14258 6.21582 14.2637 6.21582c1.0957 0 1.82812 0 2.55762 -0.366211c5.48633 -0.363281 10.6074 -4.02148 13.5332 -8.77637c4.75293 -7.67871 3.65625 -17.1875 -3.29199 -23.7705
l-41.3262 -41.6914h68.7549c-13.5312 21.9414 -21.2119 47.1758 -21.2119 74.6045c0 27.7949 8.04688 54.1279 22.3096 76.0693h-86.3096c-2.56055 -0.366211 -10.6055 -0.732422 -16.458 4.38867c-2.55762 2.19434 -5.85059 6.58203 -6.2168 13.8975v1.0957v0.732422
c2.19434 18.2852 17.5557 17.9189 21.9443 17.9189h122.514c23.7725 17.9199 53.0293 28.5273 85.2119 28.5273c31.8174 0 61.4395 -10.6074 85.21 -28.5273h81.9219h23.4043c-13.8975 13.8975 -27.4287 27.7949 -41.3262 41.3262
c-2.92383 2.92676 -5.11816 6.94922 -5.85059 10.6074c-1.82812 8.41016 2.19434 16.8213 9.875 20.8438c7.3125 3.6582 15.7256 2.19629 21.5762 -3.29004l74.2412 -73.875c4.3877 -4.38867 6.94824 -9.50879 6.94824 -14.6279
c0 -5.12012 -2.56055 -10.2402 -6.94824 -14.6289l-72.7773 -73.1426c-4.02441 -4.02246 -9.50879 -6.2168 -14.6289 -6.2168c-0.732422 0 -1.46289 0 -2.19434 0.366211c-5.85059 0.729492 -10.9707 4.02246 -13.8975 8.77637zM280.868 88.1387
c24.8682 5.48438 46.8105 19.3818 62.9023 38.0332c17.1895 20.1143 27.4277 46.4463 27.4277 74.9707c0 28.8936 -10.6045 55.2236 -28.5244 75.7031c-17.9189 20.8467 -43.1533 34.7432 -72.0469 38.3994c-4.75391 0.732422 -9.50879 1.09863 -14.627 1.09863
c-5.12012 0 -9.875 -0.366211 -14.6289 -1.09863c-28.5254 -3.29004 -54.125 -17.5527 -72.0449 -38.0332c-17.9219 -20.4795 -28.8926 -46.8125 -28.8926 -76.0693c0 -28.5244 10.2402 -54.4912 27.7939 -74.6045c15.7256 -19.0176 38.0332 -32.915 62.9043 -38.3994
c8.04492 -1.46484 16.4551 -2.56055 24.8682 -2.56055c8.41113 0 16.8213 1.0957 24.8682 2.56055zM325.484 244.297l-47.9082 -48.2744l47.542 -47.543c4.39062 -4.3877 4.39062 -10.9707 0 -15.3594l-6.94629 -6.94824l-2.19629 -1.82812l-4.75195 -0.732422h-0.366211
c-2.19434 0 -4.75488 0.732422 -6.94922 2.56055c-0.366211 0.366211 -0.366211 0.366211 -0.731445 0.732422l-47.1768 47.1758l-47.1787 -47.1758c-0.363281 -0.366211 -0.363281 -0.366211 -0.729492 -0.366211c-4.38867 -4.02246 -10.6074 -3.6582 -14.2637 0
l-6.94824 6.58203c-4.75488 4.75488 -4.75488 11.3379 -0.366211 15.7256l47.9082 47.1768l-50.4688 50.835l-0.729492 5.12012c0 2.92676 1.0957 5.85059 3.29004 7.68066l9.50879 8.77734l4.75488 0.729492c2.92578 0 5.84961 -1.0957 7.68066 -3.29004l47.542 -47.9082
l50.1025 50.4688l5.12109 0.729492c2.92383 0 5.84961 -1.0957 7.67773 -3.29004l6.2168 -6.58301c4.39062 -4.02148 4.39062 -10.9707 0.366211 -14.9951z" />
    <glyph glyph-name="action-invoke" unicode="&#xe6fe;" horiz-adv-x="513" 
d="M437.798 322.322l75.2441 -78.1309l-75.8779 -75.3242l-19.6094 19.7451l41.8535 41.5273l-258.079 -2.5459l-0.317383 27.8281l260.113 2.57031l-43.3896 45.0381zM283.731 80.9697l-20.0625 -19.292l-75.2441 78.1309l75.8779 75.3242l19.6094 -19.7451
l-41.8535 -41.5273l256.914 2.5459l0.317383 -27.8281l-258.948 -2.57031zM96.3887 288.389c53.2334 0 96.3887 -43.1543 96.3887 -96.3887s-43.1553 -96.3887 -96.3887 -96.3887c-53.2344 0 -96.3887 43.1543 -96.3887 96.3887s43.1543 96.3887 96.3887 96.3887z
M120.767 139.798h17.251c-1.29004 7.11523 -1.72852 15.96 -1.72852 25.0176v39.0479c0 20.9209 -7.76758 42.707 -39.6875 42.707c-13.1543 0 -25.6689 -3.6582 -34.3008 -9.27051l4.32227 -12.5156c7.3291 4.74805 17.4639 7.76758 27.1719 7.76758
c21.3594 0 23.7275 -15.5342 23.7275 -24.1533v-2.16699c-40.3389 0.225586 -62.7627 -13.5801 -62.7627 -38.8232c0 -15.0957 10.7861 -29.9785 31.9199 -29.9785c14.8828 0 26.1074 7.3291 31.9199 15.5225h0.651367zM117.961 193.077v-18.1143
c0 -1.94238 -0.438477 -4.10938 -1.07715 -6.03906c-3.01953 -8.84375 -11.6504 -17.4756 -25.2432 -17.4756c-9.70898 0 -17.9023 5.8252 -17.9023 18.1152c0 20.2822 23.5146 23.9395 44.2227 23.5137z" />
    <glyph glyph-name="action" unicode="&#xe709;" horiz-adv-x="486" 
d="M51.2002 224.914v-43.8857h402.285v43.8857h-402.285zM149.942 382.172l-36.5713 -84.1143l-69.4854 -14.6289h442.514v-347.429h-471.771v347.429l-14.6279 65.8281zM303.543 415.086l-40.2285 -84.1143l-84.1143 -18.2861l40.2285 84.1143zM464.457 448
l14.6289 -69.4854l-146.286 -32.915l40.2285 84.1143z" />
    <glyph glyph-name="activate" unicode="&#xe6cf;" horiz-adv-x="468" 
d="M299.886 396.8c98.7432 -29.2568 168.229 -117.028 168.229 -223.086c0 -128 -106.058 -234.057 -234.058 -234.057s-234.058 106.057 -234.058 234.057c0 102.4 65.8291 186.515 153.601 219.429v-58.5137c-58.5146 -29.2578 -102.4 -91.4287 -102.4 -164.571
c0 -98.7432 80.457 -182.857 182.857 -182.857c98.7432 0 182.857 80.457 182.857 182.857c0 76.7998 -47.543 142.628 -113.372 168.229v58.5137h-3.65723zM201.144 448h54.8564v-219.429h-54.8564v219.429z" />
    <glyph glyph-name="add" unicode="&#xe615;" 
d="M512 219.429v-54.8574h-228.571v-228.571h-54.8574v228.571h-228.571v54.8574h228.571v228.571h54.8574v-228.571h228.571z" />
    <glyph glyph-name="airplay" unicode="&#xe600;" 
d="M512 395.691v-293.485h-99.6104l-44.0098 61.8135h84.0332l0.0126953 169.191h-392.768l-0.0712891 -169.075l84.709 -0.116211l-44.8838 -61.8135h-99.4121v293.485h512zM433.698 -11.6914h-350.208l173.202 227.548z" />
    <glyph glyph-name="alarm" unicode="&#xe6c2;" horiz-adv-x="513" 
d="M241.815 312.686h32.915v-106.057h84.1143v-32.915h-84.1143h-18.2861h-14.6289v138.972zM256.444 363.886c-95.0859 0 -171.886 -76.7998 -171.886 -171.886s76.7998 -171.886 171.886 -171.886s171.886 76.7998 171.886 171.886
c3.65723 91.4287 -73.1426 171.886 -171.886 171.886zM256.444 407.771c120.686 0 219.429 -98.7432 219.429 -219.429c0 -84.1143 -47.543 -157.257 -117.028 -193.828l43.8857 -43.8857h-69.4863l-25.5996 25.5996c-14.6289 -3.65723 -32.9141 -7.31445 -51.2002 -7.31445
s-32.9141 3.65723 -47.543 3.65723l-25.5996 -21.9424h-69.4863l43.8857 43.8857c-69.4854 36.5713 -120.686 109.714 -120.686 193.828c3.65723 120.686 98.7432 219.429 219.429 219.429zM410.044 433.371c21.9434 0 47.543 -10.9707 69.4863 -32.9141
c32.9141 -32.9141 43.8857 -76.7998 21.9424 -98.7432c-3.65723 -3.65625 -7.31445 -7.31348 -10.9707 -7.31348c-21.9434 51.1992 -62.1719 95.085 -113.372 120.686c0 3.65723 3.65723 3.65723 3.65723 7.31445c7.31445 7.31348 18.2861 10.9707 29.2568 10.9707z
M102.845 433.371c10.9707 0 21.9424 -3.65723 29.2568 -10.9707c3.65723 -3.65723 3.65723 -3.65723 3.65723 -7.31445c-51.2002 -25.6006 -87.7715 -69.4863 -113.372 -120.686c-3.65625 3.65723 -7.31348 3.65723 -10.9707 7.31348
c-21.9434 21.9434 -10.9717 65.8291 21.9424 98.7432c21.9434 21.9434 47.543 32.9141 69.4863 32.9141z" />
    <glyph glyph-name="alert" unicode="&#xe6be;" 
d="M234.058 31.0859h43.8848v36.5713h-43.8848v-36.5713zM277.942 118.857v142.628h-43.8848v-142.628h43.8848zM256 404.114l256 -413.257h-512z" />
    <glyph glyph-name="analytics-extensions" unicode="&#xe6e2;" 
d="M400.245 294.292h53.5566v-81.7607c-4.99805 4.2832 -10.71 7.85449 -17.1387 9.99512c-12.4961 4.28613 -25.3486 3.57227 -36.418 -1.42578v73.1914zM499.861 131.482c7.14062 -0.714844 12.1387 -0.714844 12.1387 -0.714844v-194.768s-40.4199 -0.357422 -58.6299 0
c-2.49707 0 -4.99707 0 -7.14062 0.357422c-3.92578 1.07129 -6.06836 2.85645 -5.71191 5.71191c0 1.07129 0.788086 4.46387 1.50293 5.89258c2.49707 4.99805 5.71191 9.64062 9.2832 14.2812c4.64062 6.42676 7.14062 13.5674 7.14062 20.708
c0 6.42871 -1.78613 12.8545 -5.71484 18.5664c-7.85449 11.4268 -22.4932 17.1387 -35.7031 13.5674c-13.9238 -3.56934 -24.6357 -15.3525 -24.6357 -30.3486c0 -6.7832 2.85742 -13.9238 5.71191 -20.707c2.14258 -5.35742 6.06934 -9.99805 8.92676 -14.9961
c0.713867 -1.78516 1.07129 -3.21387 1.07129 -4.64258c0 -3.21191 -2.17676 -7.67676 -6.81934 -8.39062c-1.07129 -0.357422 -2.14062 -0.357422 -3.56934 -0.357422c-23.5645 0.357422 -60.2832 0.357422 -60.2832 0.357422s0.334961 38.0244 0.691406 64.8037
c0 16.0664 0 29.2764 -0.356445 30.7051c-1.07129 5.35742 -7.49805 -2.14062 -12.1406 -4.64062c-4.64062 -2.5 -8.92676 -5.35449 -13.5674 -7.85449c-12.1387 -6.06934 -23.9219 -5 -34.6338 2.85645c-8.56934 6.42676 -13.21 15.3535 -13.21 25.7061
c0 2.14258 0.357422 3.92871 0.714844 6.07129c2.14258 13.21 9.99707 22.1357 23.207 26.0625c8.21191 2.5 16.4238 1.78516 23.9219 -2.85547c4.2832 -2.5 8.21191 -5 12.8525 -7.14062c6.07129 -3.21387 11.0693 -9.64062 12.498 -3.21387
c0.713867 3.92676 1.07129 18.9238 1.42871 33.5625v2.85449v31.0654s53.5557 -0.714844 59.2676 0.354492c4.28613 0.714844 6.06934 1.78613 6.06934 3.92871c0 1.42871 -0.711914 3.21387 -2.14062 4.99805c-0.357422 0.713867 -1.07129 1.78516 -1.78613 2.5
c-2.14258 3.92871 -4.99707 7.49707 -7.49707 11.4258c-3.57129 5.71191 -5.35547 11.7812 -4.99805 18.208c0 6.7832 2.14062 13.5693 6.7832 19.2812c1.78418 2.14258 3.56934 3.92578 5.71191 5.71191c8.56934 6.7832 19.6387 8.92676 30.7061 5.35742
c12.8545 -4.28613 22.1357 -16.0674 22.1357 -29.6367v-1.42871c-0.357422 -6.7832 -3.92578 -13.5664 -6.7832 -19.6357c-2.14258 -4.64258 -6.42676 -8.56934 -9.2832 -12.8545c-1.42676 -1.78418 -2.14062 -3.21289 -2.14062 -4.64062
c0 -1.78613 1.7832 -3.21484 5.35449 -3.56934c4.64062 -0.714844 40.3457 -2.14355 59.627 -2.5zM215.654 358.203l-104.972 -95.6875l-19.2783 22.4951l124.25 108.184l86.0469 -66.7676l98.9014 76.4082l-47.8438 3.21191l3.21484 34.9912l98.8994 -3.21191
l-3.21191 -101.759h-34.9912l3.21387 47.8438l-118.183 -95.6875zM320.982 102.917h-31.4199h-57.127h-53.9131h-38.918h-53.5576h-50.3418h-35.7051v35.7061v309.198h35.7051v-309.198h50.3418v90.332h53.5576v-90.332h38.918v155.669h53.9131v-155.669h57.127v109.254
h53.5557v-96.0439h-4.2832h-17.8525v-17.8506v-31.0654z" />
    <glyph glyph-name="android-logcat" unicode="&#xe72c;" 
d="M455.556 100.712c-2.24121 -0.102539 -4.79688 0.558594 -6.65137 -0.415039c-2.35742 -1.23926 -4.14746 -3.78613 -6.18066 -5.76758c1.59375 -1.70801 2.91699 -4.25684 4.82129 -4.99121c15.9844 -6.14941 32.0781 -11.9492 48.127 -17.8955
c3.51562 -1.30078 6.98242 -2.75684 11.8145 -4.67383c-4.02441 -13.7549 -7.93262 -27.1162 -12.0938 -41.3457c-3.88379 1.08496 -7.22559 1.75391 -10.4033 2.94824c-20.0342 7.52734 -40.0654 15.0645 -60.0225 22.8369
c-6.70117 2.60938 -12.2031 2.0293 -17.8838 -3.35645c-36.0469 -34.1855 -78.9473 -49.293 -125.612 -52.2461c-41.4238 -2.62012 -82.1719 2.19238 -121.191 18.9268c-18.9912 8.14453 -36.1562 19.8057 -51.1211 35.0381
c-5.19434 5.28516 -9.78125 6.47754 -16.6514 3.7207c-21.7549 -8.73047 -43.793 -16.6113 -65.7363 -24.7656c-3.03809 -1.12695 -6.16992 -1.94922 -10.2393 -3.2168c-3.63574 12.1562 -7.01367 23.3057 -10.2832 34.4912
c-0.59375 2.0332 -0.746094 4.2207 -1.25488 7.22949c6.4707 2.48047 12.7363 4.95312 19.0449 7.28809c14.8682 5.50488 29.8037 10.8057 44.5918 16.5605c2.23828 0.870117 3.83691 3.72949 5.73145 5.66992c-2.44434 1.29004 -4.85059 3.58496 -7.34375 3.70703
c-18.9258 0.9375 -37.8682 1.54297 -56.8096 2.0498c-9.0918 0.243164 -10.5254 1.58887 -10.1562 11.4414c0.307617 8.21875 1.16211 16.4395 1.02441 24.6426c-0.114258 6.71484 1.89258 9.22852 8.16309 8.8418c14.9326 -0.919922 29.9082 -0.988281 44.8389 -1.96191
c7.06738 -0.459961 10.04 1.27441 10.2881 10.0801c0.541992 19.2236 5.61816 37.25 15.9688 53.083c3.18262 4.87012 4.54004 9.53809 3.82324 15.9307c-3.58496 32.0645 -8.98145 64.04 -6.63379 96.5801c1.18359 16.375 2.20312 32.833 4.62305 49.0137
c2.47754 16.5625 12.8633 22.5449 26.9951 16.2725c6.15234 -2.73047 11.8506 -6.96191 17.3574 -11.1475c26.5918 -20.2139 50.3125 -44.1006 72.1387 -70.2031c6.33203 -7.57324 12.4287 -9.33301 21.9932 -8.78125c25.0557 1.44434 50.2588 0.71875 75.3633 -0.326172
c7.89355 -0.328125 13.3779 1.15625 19.1631 7.3418c19.8438 21.2051 39.9824 42.1162 60.7393 62.2275c7.93555 7.68945 17.4219 13.8486 26.9463 19.0586c16.21 8.87207 25.5762 3.79688 29.8955 -15.5029c6.58008 -29.417 5.48828 -59.3633 3.66211 -89.2002
c-1.08691 -17.75 -3.72266 -35.3818 -5.08203 -53.1211c-0.301758 -3.93555 0.876953 -8.89453 3.01562 -12.0264c12.5693 -18.418 18.8213 -39.1094 19.4863 -61.9092c0.176758 -6.06445 2.79688 -7.35645 7.58301 -7.10254
c13.4395 0.714844 26.8975 1.07617 40.3369 1.8125c6.04004 0.333008 8.55566 -2.53516 8.71387 -9.06934c0.22168 -9.04004 0.605469 -18.0996 1.45605 -27.0889c0.59375 -6.26367 -1.76855 -8.24121 -7.03613 -8.43555
c-16.4443 -0.604492 -32.8799 -1.47949 -49.3193 -2.24316zM259.442 18.5518c93.8252 0 169.888 56.6758 169.888 126.591s-76.0625 126.592 -169.888 126.592c-93.8262 0 -169.889 -56.6768 -169.889 -126.592s76.0625 -126.591 169.889 -126.591zM148.571 205.714h45.1426
v-27.4277h-45.1426v27.4277zM219.429 205.714h152.571v-27.4277h-152.571v27.4277zM148.571 153.714h45.1426v-27.4277h-45.1426v27.4277zM219.429 153.714h152.571v-27.4277h-152.571v27.4277zM148.571 97.7139h45.1426v-27.4277h-45.1426v27.4277zM219.429 97.7139
h152.571v-27.4277h-152.571v27.4277z" />
    <glyph glyph-name="android-sense" unicode="&#xe72d;" 
d="M438.857 352.915c45.3477 -41.6914 73.1426 -98.377 73.1426 -160.915s-27.7949 -119.224 -73.1426 -160.915l-7.31543 19.0176c38.7656 36.9375 62.1719 87.04 62.1719 141.897s-23.4062 104.96 -62.1719 141.897zM421.304 306.835
c27.0625 -31.8174 43.5195 -71.6807 43.5195 -114.835s-16.457 -83.0176 -43.5195 -114.835l-7.68066 19.75c20.8457 27.0625 32.915 59.9756 32.915 95.085s-12.0693 68.0225 -32.915 95.085zM400.092 250.88c9.14258 -17.9199 14.2627 -38.0342 14.2627 -58.8799
s-5.12012 -40.96 -14.2627 -58.8799l-9.50879 24.8691c3.6582 10.9707 5.48633 22.3076 5.48633 34.0107s-1.82812 23.04 -5.48633 34.0107zM111.908 250.88l9.50879 -24.8691c-3.6582 -10.9707 -5.48633 -22.3076 -5.48633 -34.0107s1.82812 -23.04 5.48633 -34.0107
l-9.50879 -24.8691c-9.14258 17.9199 -14.2627 38.0342 -14.2627 58.8799s5.12012 40.96 14.2627 58.8799zM98.377 287.085c-20.8457 -27.0625 -32.915 -59.9756 -32.915 -95.085s12.0693 -68.0225 32.915 -95.085l-7.68066 -19.75
c-27.0625 31.8174 -43.5195 71.6807 -43.5195 114.835s16.457 83.0176 43.5195 114.835zM80.458 333.897c-38.7656 -36.9375 -62.1719 -87.04 -62.1719 -141.897s23.4062 -104.96 62.1719 -141.897l-7.31543 -19.0176c-45.3477 41.6914 -73.1426 98.377 -73.1426 160.915
s27.7949 119.224 73.1426 160.915zM359.864 244.536c8.77637 1.0957 16.0908 -4.02441 17.9189 -12.8008c0.366211 -1.46289 0.366211 -3.29102 0.366211 -4.75488v-69.4844c0 -9.875 -6.94824 -17.5557 -16.457 -17.1895c-1.82812 0 -4.02246 0.366211 -5.4873 1.09766
c-6.58203 2.19434 -11.3369 8.41113 -11.3369 16.4561v70.2188c0 8.41016 6.58301 15.3594 14.6299 16.457h0.366211zM178.103 244.536h155.429c0.366211 -1.09766 0.366211 -81.1895 0.366211 -119.955c0 -12.4355 -7.31445 -19.748 -19.748 -19.748h-9.875
c0 -8.04688 -0.366211 -35.4756 -0.366211 -41.3262c0 -0.731445 0 -1.09766 -0.366211 -1.82812c-0.729492 -7.31445 -7.67773 -13.167 -15.3594 -13.167c-6.21582 -0.366211 -12.0684 2.92676 -14.9951 7.68066c-1.46191 1.82812 -2.19434 4.02246 -2.19434 6.58301
v42.0576h-29.9863v-37.6699c0 -2.19336 0 -4.3877 -0.366211 -6.58203c-0.366211 -1.46191 -1.09863 -2.92676 -1.82812 -4.38867c-3.29199 -5.48633 -9.50879 -8.41016 -16.458 -7.68066c-6.94824 1.09863 -12.4346 6.21875 -13.8965 13.167
c-0.366211 1.09668 -0.732422 2.19434 -0.732422 3.29102v16.457v23.4062h-10.2393c-12.0693 0 -19.0176 7.3125 -19.0176 19.0156c-0.366211 39.1318 -0.366211 78.2637 -0.366211 117.396v3.29199zM333.897 256.237h-155.429c0 12.4355 4.02246 23.4062 11.3369 32.915
c7.31445 9.875 16.8242 16.8232 27.7949 22.3076c-1.09863 1.46484 -13.165 20.8467 -13.165 20.8467c-0.366211 1.09766 0.363281 2.19434 1.46191 3.29199h1.82812c0.732422 -0.732422 2.56055 -2.92578 2.92578 -3.29199
c2.92676 -4.75488 10.2393 -15.3594 10.6055 -15.7256c1.09766 -2.19434 2.19434 -2.56055 4.75391 -1.82812c20.1143 6.94824 40.2305 6.94824 60.3438 0c2.19434 -0.732422 3.29102 -0.732422 4.38867 1.46191c0.366211 0.366211 8.41113 12.0693 12.4336 17.5537
c0.365234 0.732422 0.731445 1.09766 1.09766 1.83008h1.82812c1.09863 -1.09766 1.82812 -2.19434 1.46191 -3.29199c0 -0.732422 -0.363281 -1.46191 -1.0957 -2.56055c-0.0917969 -0.136719 -0.1875 -0.282227 -0.289062 -0.433594
c-3.13379 -4.69922 -10.7158 -16.0693 -11.7803 -17.4863c22.6738 -12.0693 38.0361 -28.8906 39.498 -55.5889zM230.766 286.592c0 4.38867 -3.65625 8.04688 -8.04492 8.04688c-4.75391 0 -8.41309 -3.6582 -8.41309 -8.04688
c0 -4.75391 3.65918 -8.41016 8.41309 -8.41016c4.75293 0 8.41113 3.65625 8.04492 8.41016zM297.692 286.592c0 4.38867 -4.02246 8.41113 -8.41309 8.04688c-4.38867 0 -8.04492 -3.6582 -8.04492 -8.41309c0 -4.3877 3.65625 -8.04395 8.41113 -8.04395
c4.3877 0 8.04688 3.65625 8.04688 8.41016zM153.234 244.536c7.68066 -1.09766 13.5312 -7.68066 13.8975 -15.7275v-72.7764c-0.366211 -6.94922 -4.75488 -13.166 -11.3369 -14.9941c-0.732422 -0.365234 -1.82812 -0.731445 -2.56055 -0.731445
c-8.04688 -1.09668 -15.3594 2.92578 -18.2861 10.6045c-0.365234 1.09863 -0.365234 81.9219 -0.365234 82.6523c2.92578 7.31445 9.50879 11.7031 17.5527 10.9727h1.09863z" />
    <glyph glyph-name="android" unicode="&#xe606;" horiz-adv-x="436" 
d="M307.109 448c4.0791 -3.2832 3.62207 -6.58203 0.782227 -10.6709c-7.31348 -10.5283 -14.2598 -21.3115 -21.5039 -32.2217c40.3779 -21.0518 67.7979 -50.8789 70.4121 -98.9365h-277.296c-0.00488281 22.29 7.39746 41.6885 20.4199 59.124
c12.9482 17.3389 29.7695 29.9609 49.793 39.5449c-6.51758 9.83301 -12.7402 19.2227 -18.9639 28.6113c-0.941406 1.41992 -1.74707 2.96094 -2.86133 4.22949c-3.25977 3.70898 -2.6084 7.06836 0.639648 10.3193h3.41211
c1.6582 -2.0127 3.48828 -3.90918 4.94531 -6.05859c6.3623 -9.38477 12.8066 -18.7256 18.8145 -28.3359c2.29492 -3.6709 4.26758 -4.55176 8.53027 -3.08984c35.916 12.3193 71.9355 12.2178 107.842 -0.0898438c3.69336 -1.26562 5.54004 -0.802734 7.74023 2.55566
c7.74219 11.8164 15.8887 23.3672 23.8818 35.0186h3.41211zM292.231 360.362c-0.0947266 8.04395 -6.96387 14.7559 -14.999 14.6572c-8.18066 -0.100586 -14.6318 -6.73242 -14.5645 -14.9736c0.0664062 -8.27344 6.55078 -14.5977 14.8906 -14.5234
c8.22754 0.0722656 14.7695 6.68945 14.6729 14.8398zM173.229 360.295c-0.0429688 8.2041 -6.66406 14.7998 -14.7881 14.7314c-8.04883 -0.0683594 -14.8105 -6.89941 -14.7568 -14.9102c0.0546875 -8.12402 6.71191 -14.6387 14.9268 -14.6055
c8.29883 0.0332031 14.6611 6.46875 14.6182 14.7842zM0 123.829v137.63c0.605469 1.55957 1.24316 3.10645 1.8125 4.67871c4.96484 13.6904 18.2451 21.4648 32.9453 19.2725c13.5957 -2.02734 24.4111 -13.7842 24.4902 -27.9277
c0.239258 -43.21 0.238281 -86.4219 -0.000976562 -129.632c-0.0771484 -14.0996 -10.9492 -25.9463 -24.4746 -27.9707c-14.4902 -2.16797 -27.6182 5.3584 -32.7246 18.7539c-0.663086 1.73926 -1.36426 3.46387 -2.04785 5.19531zM244.86 -38.1689
c-0.847656 24.5957 -0.229492 49.2422 -0.229492 74.4873h-53.1367c0 -22.416 0.0507812 -44.5254 -0.046875 -66.6348c-0.0175781 -3.94922 -0.103516 -8.04004 -1.09668 -11.8193c-3.81445 -14.5137 -17.3594 -23.3867 -32.4238 -21.6475
c-14.3438 1.65527 -25.6455 14.1709 -25.7979 29.3369c-0.235352 23.4512 -0.0625 46.9053 -0.0625 71.0703c-5.78711 0 -12.1768 -0.0136719 -18.5674 0.00292969c-21.1787 0.0546875 -34.0605 12.8027 -34.0713 33.8965
c-0.0332031 69.749 -0.0126953 139.499 -0.0136719 209.248v5.88379h276.91c0.111328 -1.96973 0.322266 -3.95996 0.322266 -5.9502c0.0166016 -69.3701 0.0361328 -138.74 0.000976562 -208.11c-0.0107422 -22.2334 -12.749 -34.9395 -34.8594 -34.9688
c-6.19629 -0.00878906 -12.3926 -0.00195312 -18.1152 -0.00195312c0 -24.999 0.371094 -49.2256 -0.136719 -73.4346c-0.311523 -14.7959 -13.6123 -26.8076 -28.4785 -27.1094c-15.5303 -0.314453 -29.6797 10.7637 -30.1973 25.751zM435.734 253.966
c0.0634766 -20.6377 0.0332031 -41.2754 0.0322266 -61.9141c0 -20.4482 0.0556641 -40.8975 -0.0166016 -61.3457c-0.0654297 -18.1475 -12.5879 -31.2676 -29.6455 -31.2334c-17.0439 0.0332031 -29.6035 13.2344 -29.6201 31.3047
c-0.0371094 41.8438 -0.0849609 83.6875 0.0351562 125.531c0.0439453 15.167 11.1279 27.5107 25.6953 29.2207c15.5938 1.83008 29.1562 -7.42773 32.7324 -22.5596c0.686523 -2.90332 0.777344 -5.99707 0.787109 -9.00391z" />
    <glyph glyph-name="annotation" unicode="&#xe6e6;" 
d="M491.416 218.997c12.9082 -13.5703 20.2588 -33.9746 20.5723 -57.375c0.538086 -38.2832 -17.2998 -79.6611 -50.2871 -116.508c-58.085 -66.5625 -176.586 -107.271 -254.257 -107.271h-2.03906c-151.623 1.73242 -205.405 99.0996 -205.405 181.979
c0 166.9 156.889 325.479 322.853 326.297c58.623 0.991211 105.907 -17.2344 136.742 -51.085c23.2607 -25.5303 35.542 -59.1826 35.542 -97.292c0 -24.6885 -6.32031 -50.3672 -15.0596 -74.1396c3.76465 0.520508 8.1123 -1.04004 11.3389 -4.60547zM427.863 70.6689
c34.959 41.4521 55.2168 83.8711 54.2305 113.462c-0.313477 9.01367 -2.7334 16.0713 -6.94629 20.3799c-0.717773 0.693359 -1.2998 1.43652 -1.83789 2.2041c-12.9531 -30.2598 -28.6846 -55.8643 -38.0068 -69.9795
c-30.9697 -48.9805 -64.3818 -72.8516 -101.963 -72.8516h-1.5459c-21.5127 0 -36.5273 12.0352 -43.3398 34.8662c-5.24414 17.9277 -1.38965 50.8369 4.84082 77.9023c-1.43457 -1.80762 -2.86914 -3.61523 -4.25781 -5.39746
c-28.8408 -36.4258 -77.0889 -97.416 -122.288 -97.416c-17.0986 0 -38.6787 12.5293 -50.1748 29.1699c-12.1689 17.4824 -14.8574 38.0352 -7.97852 61.04c21.6699 72.3809 133.852 148.996 175.399 161.947c17.9717 5.37305 54.3877 9.60742 76.7744 -7.80078
c10.5547 -9.38477 15.5518 -18.25 15.5518 -27.3379c0 -6.83398 -2.66699 -9.70605 -4.90723 -10.8955c-1.77051 -0.916016 -5.33398 -1.90625 -9.92773 2.12988l-1.32227 1.65918c-5.60254 10.1523 -16.1797 12.2324 -30.3643 12.2324
c-32.4717 0 -80.0469 -26.6191 -121.235 -67.8242c-23.373 -24.1436 -74.8027 -97.0205 -57.1211 -125.349c0.469727 -0.743164 1.36621 -1.7334 3.47266 -2.03027c9.61426 -1.23828 31.418 14.0156 43.2949 25.332c19.1152 16.665 50.96 47.9902 69.3799 69.8301
c1.86035 2.17969 5.13184 6.16602 9.2998 11.2178c52.6621 63.9375 60.8643 70.9453 66.0635 70.9453c3.98828 0 27.1602 -2.6748 33.7705 -14.5605c2.33105 -4.18555 2.46484 -9.06348 0.314453 -13.6943c-25.1885 -40.4863 -40.7852 -89.417 -42.8701 -115.294
c-2.53223 -17.6807 1.27734 -30.2598 6.32031 -33.8262c13.4678 -11.7871 46.9023 18.9688 66.4434 44.5479c32.0908 43.335 51.2285 99.1992 51.2285 149.418c0 28.2539 -9.32227 53.4375 -27.0264 72.8018c-24.4258 26.8184 -63.5977 41.502 -110.411 41.502h-1.9043
c-139.521 -1.55957 -271.424 -145.084 -271.424 -295.294c0 -93.6523 58.377 -148.13 160.139 -149.467h1.41113c67.6543 0 171.544 50.417 218.918 106.43z" />
    <glyph glyph-name="api" unicode="&#xe601;" 
d="M512 243.2v-98.7432l-51.2002 -7.31445c-7.31445 -14.6279 -14.6279 -32.9141 -21.9424 -47.543l32.9141 -47.543l-69.4854 -69.4854l-43.8857 36.5713c-18.2861 -7.31445 -32.915 -14.6279 -51.2002 -18.2852l-7.31445 -54.8574h-95.0859l-3.65723 58.5146
c-18.2852 3.65723 -32.9141 10.9707 -47.543 18.2852l-43.8857 -36.5713l-69.4854 69.4854l36.5713 43.8857c-10.9717 14.6289 -14.6279 29.2578 -21.9424 47.543l-54.8574 7.31445v95.0859l54.8574 7.31445c3.65723 14.6279 10.9707 32.9141 18.2852 47.543
l-32.9141 43.8857l65.8291 69.4854l43.8848 -32.9141c18.2861 7.31445 32.915 14.6279 51.2002 21.9424l7.31445 51.2002h98.7432l3.65723 -51.2002c18.2852 -7.31445 36.5713 -14.6279 51.1992 -21.9424l40.2295 32.9141l69.4854 -69.4854l-32.9141 -40.2285
c7.31445 -18.2861 14.6279 -32.915 21.9424 -47.543zM256 29.1621c91.3486 0 162.838 71.4893 162.838 162.838s-71.4893 162.838 -162.838 162.838s-162.838 -71.4893 -162.838 -162.838s71.4893 -162.838 162.838 -162.838zM242.5 133.643h-25.6426l-10.1787 26.5
h-46.6611l-9.625 -26.5h-25l45.4648 116.715h24.9102zM199.107 179.821l-16.0713 43.3037l-15.7686 -43.3037h31.8398zM255 133.643v116.715h37.8213c14.3213 0 23.6787 -0.589844 28.0361 -1.75c6.67871 -1.76855 12.2852 -5.57129 16.7852 -11.4287
c4.5 -5.875 6.75 -13.4463 6.75 -22.7324c0 -7.16016 -1.28516 -13.1963 -3.89258 -18.0537c-2.60742 -4.89258 -5.89258 -8.71387 -9.89258 -11.5c-4.03613 -2.78516 -8.10742 -4.64258 -12.25 -5.57129c-5.60742 -1.07129 -13.75 -1.64258 -24.4287 -1.64258h-15.3574
v-44.0361h-23.5713zM278.571 230.607v-33.1436h12.8926c9.28613 0 15.5 0.643555 18.6436 1.85742c3.10645 1.21484 5.57129 3.125 7.35645 5.73242c1.78613 2.60742 2.67871 5.625 2.67871 9.07129c0 4.25 -1.25 7.75 -3.75 10.5176
c-2.5 2.75 -5.67871 4.48242 -9.5 5.16113c-2.78516 0.535156 -8.46387 0.803711 -16.9287 0.803711h-11.3926zM363.036 133.643v116.715h23.5713v-116.715h-23.5713z" />
    <glyph glyph-name="apn" unicode="&#xe602;" horiz-adv-x="444" 
d="M242.036 54.6787l-123.232 -118.679l-118.804 119.679l31.1426 30.9287l65.498 -66.0137l-4.01562 349.37l43.8926 0.5l4.05371 -352.578l71.0361 68.4355zM232.107 297.679l-30.4287 31.6426l123.232 118.679l118.804 -119.679l-31.1436 -30.9287l-65.4971 66.0137
l4.01562 -349.37l-43.8936 -0.5l-4.05371 352.578z" />
    <glyph glyph-name="apple" unicode="&#xe604;" horiz-adv-x="443" 
d="M132.067 327.314c40.2295 0 65.8281 -21.9434 98.7432 -21.9434c32.9141 0 51.2002 21.9434 98.7422 21.9434c36.5713 0 73.1426 -18.2852 98.7432 -51.2002c-87.7705 -47.543 -73.1426 -171.886 14.6289 -204.8c-10.9707 -25.6006 -18.2861 -40.2285 -32.9141 -62.1719
c-21.9434 -32.9141 -51.2002 -73.1426 -91.4287 -73.1426c-32.9141 0 -43.8867 21.9434 -87.7715 21.9434c-47.543 0 -54.8574 -21.9434 -91.4287 -21.9434s-65.8291 36.5713 -87.7715 69.4854c-58.5137 91.4287 -65.8281 201.143 -29.2568 259.657
c25.6006 40.2295 69.4854 62.1719 109.714 62.1719zM314.925 448c7.31445 -32.9141 -7.31445 -62.1719 -21.9434 -84.1143c-18.2861 -21.9424 -51.1992 -40.2285 -80.4561 -40.2285c-3.6582 29.2568 7.31348 62.1709 25.5986 80.457
c18.2861 25.5996 51.2002 40.2285 76.8008 43.8857z" />
    <glyph glyph-name="application" unicode="&#xe608;" 
d="M277.942 224.914l124.344 -84.1143l-32.915 -21.9424l43.8857 -58.5146l-25.5996 -21.9424l-47.543 62.1709l-32.9141 -21.9424zM18.2861 276.114v-277.942h475.428v277.942h-475.428zM0 411.429h512v-21.9434v-420.571h-512v420.571v21.9434zM390.28 388.41h-39.3682
v-39.3682h39.3682v39.3682zM441.997 388.41h-39.3682v-39.3682h39.3682v39.3682zM493.714 388.41h-39.3672v-39.3682h39.3672v39.3682zM494.037 325.271h-475.429v-25.3848h475.429v25.3848z" />
    <glyph glyph-name="arduino" unicode="&#xe6ab;" 
d="M91.835 203.761h74.3457v-23.4395h-74.3457v23.4395zM406.531 72.0156c-60.7168 -8.05371 -105.54 18.1523 -141.962 63.6543c-2.66309 3.32812 -5.1543 6.79492 -7.74121 10.1846c-0.175781 0.232422 -0.488281 0.360352 -1.08203 0.78125
c-7.51367 -8.97461 -14.5537 -18.4678 -22.6807 -26.9121c-40.3672 -41.9561 -88.7354 -60.2705 -145.916 -43.5537c-57.8369 16.9082 -92.0693 70.0312 -86.5732 129.549c4.92578 53.373 50.0781 98.4238 106.147 106.439
c53.3506 7.62988 95.0205 -13.7676 130.104 -51.6914c6.60254 -7.13672 12.3662 -15.0498 19.1699 -23.4043c16.4189 23.1279 35.1738 42.9111 59.125 57.3281c66.8145 40.2236 153.875 16.3633 185.064 -52.0088c39.4844 -86.5518 -27.2324 -161.556 -93.6562 -170.366z
M228.448 197.277c-7.58691 11.3721 -14.6719 23.2988 -23.7207 33.4346c-20.71 23.1855 -45.4775 39.4443 -81.6357 39.7832c-3.79492 -0.575195 -11.1191 -1.14453 -18.165 -2.85254c-37.7969 -9.15137 -64.9355 -44.6514 -61.4561 -79.9863
c5.0625 -51.4199 55.4736 -85.4844 105.465 -70.8789c38.3145 11.1934 62.167 38.9727 80.6426 72.3926c1.08301 1.95508 0.269531 6.00879 -1.12988 8.10742zM449.151 242.29c-24.1562 27.1162 -64.0244 35.8369 -97.8789 21.3525
c-31.8174 -13.6113 -52.9023 -38.2676 -69.0029 -67.8193c-1.2207 -2.24121 -0.625 -6.51562 0.732422 -8.9502c10.3086 -18.4961 22.96 -35.2031 39.418 -48.75c18.4287 -15.1729 39.1465 -24.4756 63.5469 -24.7285c6.31836 0.862305 12.7227 1.33301 18.9463 2.64746
c58.8193 12.4336 83.2949 82.4043 44.2383 126.248zM393.911 229.118v-25.0137h25.1445v-24.6875h-25.1445v-24.79h-24.46v24.79h-24.7305v24.6875h24.7305v25.0137h24.46z" />
    <glyph glyph-name="assign" unicode="&#xe6ff;" 
d="M0 273.465v98.4922h512v-98.4922h-512zM0 12.043v98.5586h512v-98.5586h-512z" />
    <glyph glyph-name="ballerina-service" unicode="&#xe729;" horiz-adv-x="483" 
d="M420.571 151.771l-10.9707 -7.31445c-3.65723 0 -3.65723 0 -7.31445 3.65723l-3.65723 25.5996c7.31445 -7.31348 14.6289 -10.9707 18.2852 -18.2852zM310.857 -56.6855l14.6289 10.9717c3.65723 0 3.65723 -3.65723 7.31348 -3.65723v-3.65723
c-7.31348 0 -14.6279 -3.65723 -21.9424 -3.65723zM296.229 -60.3428c-10.9707 -3.65723 -29.2568 -3.65723 -43.8857 -3.65723h-252.343v512h219.429c29.2568 0 54.8574 -3.65723 80.457 -10.9717c25.6006 -7.31445 43.8857 -14.6279 62.1719 -25.5996
c18.2852 -10.9717 32.9141 -25.6006 40.2285 -40.2285c10.9717 -14.6289 14.6279 -32.9141 14.6279 -54.8574c0 -25.5996 -7.31348 -43.8857 -18.2852 -62.1709c-10.9717 -18.2861 -32.9141 -32.915 -62.1719 -51.2002c21.9434 -7.31445 40.2285 -18.2861 54.8574 -29.2578
h-65.8281l7.31348 -29.2568c-3.65625 0 -3.65625 -3.65723 -7.31348 -3.65723l-25.6006 18.2861l-10.9717 -14.6289v3.65723c-10.9707 7.31445 -25.5996 14.6289 -40.2285 21.9434c-14.6279 3.65625 -36.5713 7.31348 -58.5137 7.31348h-62.1719v-190.171h69.4863
c32.9141 0 58.5137 3.65723 76.7998 14.6279v0l-18.2861 -21.9424zM128 224.914h84.1143c25.6006 0 47.543 7.31445 62.1719 21.9434c14.6279 14.6279 21.9424 36.5713 21.9424 62.1709c-3.65723 29.2578 -10.9707 47.543 -32.9141 65.8291
c-18.2861 18.2852 -47.543 25.5996 -91.4287 25.5996h-43.8857v-175.543zM256 67.6572l21.9434 3.65723c3.65723 7.31445 3.65723 14.6279 7.31445 21.9424l-10.9717 18.2861l29.2568 29.2568l18.2861 -14.6279c7.31445 3.65625 14.6279 7.31348 21.9424 7.31348
l3.65723 25.6006h43.8857l3.65723 -25.6006c7.31445 -3.65723 14.6289 -3.65723 21.9424 -7.31348l18.2861 14.6279l29.2568 -29.2568l-14.6279 -18.2861c3.65723 -7.31445 7.31445 -10.9707 7.31445 -18.2852l25.5996 -3.65723v-43.8857l-25.5996 -3.65723
c-3.65723 -7.31445 -3.65723 -14.6289 -7.31445 -21.9434l14.6279 -18.2852l-29.2568 -29.2568l-18.2861 14.6279c-7.31348 -3.65723 -14.6279 -7.31445 -21.9424 -10.9717l-7.31445 -21.9424h-40.2285l-3.65723 21.9424
c-7.31445 3.65723 -14.6279 3.65723 -21.9424 10.9717l-18.2861 -14.6279l-29.2568 29.2568l14.6279 18.2852c-3.65625 7.31445 -7.31348 14.6289 -7.31348 21.9434l-21.9434 3.65723v40.2285h-3.65723zM321.829 49.3711c0 -25.5996 18.2852 -43.8857 43.8857 -43.8857
c25.5996 0 43.8857 18.2861 43.8857 43.8857c0 25.6006 -18.2861 43.8857 -43.8857 43.8857c-25.6006 0 -43.8857 -21.9424 -43.8857 -43.8857z" />
    <glyph glyph-name="ballerina" unicode="&#xe728;" horiz-adv-x="450" 
d="M416.914 155.429c18.2861 -21.9434 29.2578 -47.543 32.915 -80.457c0 -18.2861 -7.31445 -36.5713 -14.6289 -54.8574c-10.9717 -14.6289 -21.9424 -29.2568 -40.2285 -43.8857c-18.2861 -10.9717 -36.5713 -21.9424 -62.1719 -29.2568
c-25.5996 -7.31445 -51.1992 -10.9717 -80.457 -10.9717h-252.343v512h219.429c29.2568 0 58.5146 -3.65723 87.7715 -10.9717c21.9434 -3.65723 43.8857 -14.6279 62.1719 -25.5996c18.2852 -10.9717 29.2568 -25.6006 40.2285 -40.2285
c10.9707 -18.2861 14.6279 -36.5713 14.6279 -54.8574c0 -25.5996 -7.31445 -43.8857 -18.2852 -62.1709c-10.9717 -18.2861 -32.915 -32.915 -62.1719 -51.2002c29.2568 -10.9717 54.8574 -25.6006 73.1426 -47.543zM128 400.457v-175.543h84.1143
c25.6006 0 47.543 7.31445 62.1719 21.9434c14.6279 18.2852 21.9424 36.5713 21.9424 62.1709c0 29.2578 -10.9707 47.543 -29.2568 65.8291c-18.2861 18.2852 -51.2002 25.5996 -91.4287 25.5996h-47.543zM285.258 12.7998
c18.2852 18.2861 29.2568 36.5713 29.2568 62.1719c0 14.6279 -3.65723 29.2568 -7.31445 40.2285c-3.65723 14.6279 -10.9717 21.9424 -18.2861 32.9141c-7.31348 10.9717 -21.9424 18.2861 -36.5713 21.9434c-18.2852 3.65625 -36.5713 7.31348 -58.5137 7.31348h-65.8291
v-190.171h65.8291c43.8857 0 73.1426 7.31445 91.4287 25.5996z" />
    <glyph glyph-name="bar-chart" unicode="&#xe690;" 
d="M512 -9.14258v-54.8574h-457.143h-54.8574v54.8574v457.143h54.8574v-457.143h457.143zM171.639 182.781v-146.285h-71.0215v146.285h71.0215zM286.507 365.639v-329.143h-73.1436v329.143h73.1436zM399.253 219.353v-182.856h-73.1426v182.856h73.1426zM512 292.496
v-256h-73.1426v256h73.1426z" />
    <glyph glyph-name="battery" unicode="&#xe60a;" 
d="M105.419 245.057h139.524l105.419 -105.419h-244.943v105.419zM71.3125 279.163v-173.632l338.369 -0.696289v173.631zM-0 350.477l477.894 -0.697266v-89.4609h34.1064v-139.525h-34.1064v-87.2686l-477.894 0.696289v316.256z" />
    <glyph glyph-name="blank-document" unicode="&#xe60c;" horiz-adv-x="370" 
d="M258.194 448l112.274 -108.616v-403.384h-370.469v512h258.194zM343.04 -36.5713v363.52h-93.623v93.623h-221.988v-457.143h315.611z" />
    <glyph glyph-name="block" unicode="&#xe695;" 
d="M256 448c142.628 0 256 -113.372 256 -256s-113.372 -256 -256 -256s-256 113.372 -256 256s113.372 256 256 256zM73.1426 192c0 -40.2285 10.9717 -73.1426 32.9141 -102.399l252.343 256c-29.2568 18.2852 -65.8281 29.2568 -102.399 29.2568
c-102.399 0 -182.857 -80.458 -182.857 -182.857zM256 9.14258c102.399 0 182.857 84.1143 182.857 179.2c0 40.2285 -10.9717 76.7998 -32.9141 106.057l-252.343 -256c29.2568 -18.2852 65.8281 -29.2568 102.399 -29.2568z" />
    <glyph glyph-name="bookmark" unicode="&#xe60d;" horiz-adv-x="372" 
d="M186.229 351.621l-39.9814 -81.0107l-89.4014 -12.9912l64.6914 -63.0576l-15.2715 -89.04l79.9629 42.0391l79.9629 -42.0391l-15.2715 89.04l64.6904 63.0576l-89.4004 12.9912zM0 448h372.459v-512l-186.229 109.996l-186.229 -109.996v512z" />
    <glyph glyph-name="bpel" unicode="&#xe60e;" 
d="M425.25 151.17c49.4551 -10.168 86.75 -54.0498 86.75 -106.474c0 -59.9287 -48.7324 -108.696 -108.661 -108.696c-59.9277 0 -108.696 48.7676 -108.696 108.696c0 52.4131 37.3037 96.2812 86.75 106.462v20.0557h-250.768v-20.0488
c49.4463 -10.1758 86.7324 -54.0508 86.7324 -106.469c0 -59.9287 -48.7324 -108.696 -108.661 -108.696s-108.696 48.7676 -108.696 108.696c0 52.4062 37.2949 96.2676 86.7324 106.458v63.9531h10.9639h32.9287h103.429v17.7383
c-49.4375 10.1904 -86.7324 54.0518 -86.7324 106.458c0 59.9287 48.7676 108.696 108.696 108.696s108.661 -48.7676 108.661 -108.696c0 -52.4238 -37.2949 -96.3057 -86.75 -106.474v-17.7227h103.464h35.3936h8.46387v-63.9375zM191.214 339.304
c0 -35.7324 29.0723 -64.8037 64.8037 -64.8037c35.7324 0 64.7861 29.0713 64.7861 64.8037s-29.0537 64.8037 -64.7861 64.8037c-35.7314 0 -64.8037 -29.0713 -64.8037 -64.8037zM173.482 44.6963c0 35.7324 -29.0537 64.8037 -64.7861 64.8037
s-64.8037 -29.0713 -64.8037 -64.8037s29.0713 -64.8037 64.8037 -64.8037s64.7861 29.0713 64.7861 64.8037zM403.339 -20.1074c35.7324 0 64.7861 29.0713 64.7861 64.8037s-29.0537 64.8037 -64.7861 64.8037c-35.7314 0 -64.8027 -29.0713 -64.8027 -64.8037
s29.0713 -64.8037 64.8027 -64.8037z" />
    <glyph glyph-name="bpmn" unicode="&#xe60f;" 
d="M512 349.679c0 -46.6426 -32.7256 -85.6162 -76.3574 -95.6475v-40.085h0.03125v-43.8926h-89.5645l-90.1094 -90.1094l-90.1094 90.1094h-45.623v-40.085c43.6318 -10.0312 76.3574 -49.0049 76.3574 -95.6475c0 -54.2139 -44.1074 -98.3213 -98.3037 -98.3213
c-54.2139 0 -98.3213 44.1074 -98.3213 98.3213c0 46.6455 32.7275 85.623 76.375 95.6494v83.998h43.8926v-0.0224609h45.623l90.1094 90.1094l90.1094 -90.1094h45.6768v40.0713c-43.666 10.0137 -76.4111 49.0029 -76.4111 95.6611
c0 54.2139 44.1074 98.3213 98.3213 98.3213c54.1963 0 98.3037 -44.1074 98.3037 -98.3213zM160.054 34.3213c0 34.0361 -27.6963 61.75 -61.7324 61.75c-34.0537 0 -61.75 -27.7139 -61.75 -61.75c0 -34.0352 27.6963 -61.75 61.75 -61.75
c34.0361 0 61.7324 27.7148 61.7324 61.75zM351.946 349.679c0 -34.0361 27.6963 -61.75 61.75 -61.75c34.0361 0 61.7324 27.7139 61.7324 61.75c0 34.0352 -27.6963 61.75 -61.7324 61.75c-34.0537 0 -61.75 -27.7148 -61.75 -61.75z" />
    <glyph glyph-name="break" unicode="&#xe721;" horiz-adv-x="407" 
d="M279.395 352.288c18.3164 -0.0585938 23.7529 -0.140625 40.0342 -0.223633c26.8213 -0.166992 43.0195 -16.5596 43.1045 -42.5176c0.194336 -68.3926 0.0830078 -119.248 0.0830078 -122.592h44.1621l-70.0088 -65.6045l-72.7676 65.6045h44.4688v117.684h-48.0068z
M307.134 107.774h52.3301c0 -15.5576 1.28613 -30.8662 -0.361328 -45.8926c-1.95117 -17.9824 -20.2969 -31.7012 -41.8486 -31.8125c-40.2031 -0.223633 -71.3174 -0.334961 -118.407 -0.305664l21.6611 47.7314h86.626v30.2793zM199.903 205.522l72.1562 43.6631
l-142.109 -313.186l75.0293 233.474l-81.8857 -49.5723l173.167 328.099zM94.542 274.333h-52.3301c0 15.5576 -1.3125 30.8633 0.334961 45.8906c1.9502 17.9844 20.2969 31.7031 41.8457 31.8408c44.8887 0.223633 87.5215 0.334961 139.631 0.277344l-25.1768 -47.7031
h-104.305v-30.3057zM153.679 77.4951l-15.335 -47.6758c-24.3682 0.0263672 -34.8799 0.109375 -56.125 0.222656c-26.793 0.167969 -42.9912 16.5605 -43.0742 42.5186c-0.222656 66.8301 -0.0849609 54.9795 -0.0849609 118.241h-39.0596l64.877 69.9531l73.4668 -69.9531
h-45.168v-113.307h60.5029z" />
    <glyph glyph-name="bug" unicode="&#xe611;" horiz-adv-x="507" 
d="M78.1738 434.226c-0.0537109 11.8701 7.31055 15.8613 18.3994 11.9531c47.333 -15.3799 92.2881 -59.1143 111.479 -109.514c13.625 7.30371 28.7842 11.7236 44.9873 12.0469v0.19043c0.238281 0 0.450195 -0.0917969 0.689453 -0.09375
c0.239258 0.00195312 0.451172 0.09375 0.689453 0.09375v-0.19043c16.2031 -0.323242 31.3623 -4.74316 44.9873 -12.0469c19.1914 50.3994 64.1465 94.1338 111.479 109.514c11.0889 3.9082 18.4531 -0.0830078 18.3994 -11.9531
c-0.0507812 -11.873 -7.43262 -11.8389 -14.832 -15.7656c-44.3418 -11.6719 -80.4287 -46.7324 -91.71 -94.167c-0.696289 -1.33789 -0.792969 -2.6748 -0.714844 -4.02246c21.9443 -20.8057 33.0898 -50.9287 32.9375 -84.8154l0.334961 -10.6582
c-34.5508 0.154297 -168.592 0.154297 -203.143 0l0.334961 10.6582c-0.152344 33.8867 10.9932 64.0098 32.9375 84.8154c0.078125 1.34766 -0.0185547 2.68457 -0.714844 4.02246c-11.2812 47.4346 -47.3682 82.4951 -91.71 94.167
c-7.39941 3.92676 -14.7812 3.89258 -14.832 15.7656zM494.917 105.177c13.5 -4.5293 15.2607 -14.3838 9.27441 -23.4912c-3.99316 -6.07129 -6.55762 -13.6895 -24.3613 -5.72559c-32.7568 12.8369 -56.7949 26.2451 -70.1875 31.0137
c-4.05859 1.93457 -7.80371 4.23438 -12.6992 1.35938c-2.51953 -1.53418 -5.375 -3.59668 -8.03711 -5.35742c-0.650391 -5.63379 -1.43359 -11.5576 -2.25684 -14.8018c-1.4043 -5.54199 -2.12988 -6.76758 -2.95996 -8.77637
c15.8613 -7.07812 33.1875 -15.0762 44.7949 -19.4756c8.15625 -3.23242 9.72266 -4.44824 10.8994 -10.3262c7.26562 -41.3057 9.09082 -51.2656 16.3564 -92.5713c3.63477 -13.7676 -3.63379 -20.6533 -14.5332 -20.6533c-7.26758 0 -14.5332 6.88574 -18.167 17.2119
c-7.26855 34.4219 -5.45801 40.9375 -12.7236 75.3594c-0.611328 4.45508 -0.75 8.84766 -5.83887 11.3594c-9.15918 4.33691 -19.96 8.64746 -30.5518 12.9619c-12.3613 -28.29 -31.1895 -53.6211 -56.9688 -72.4395c-20.8789 -16.333 -41.7168 -23.2061 -62.5244 -23.7188
v-0.0341797c-0.0576172 0 -0.116211 0.015625 -0.173828 0.0185547c-0.169922 -0.00488281 -0.341797 -0.0498047 -0.511719 -0.0517578v0.100586c-20.8213 0.510742 -42.3633 7.35254 -63.2451 23.6855c-25.7793 18.8184 -44.6074 44.1494 -56.9688 72.4395
c-10.5918 -4.31445 -21.3926 -8.625 -30.5518 -12.9619c-5.08887 -2.51172 -5.22754 -6.9043 -5.83887 -11.3594c-7.26562 -34.4219 -5.45508 -40.9375 -12.7236 -75.3594c-3.63379 -10.3262 -10.8994 -17.2119 -18.167 -17.2119
c-10.8994 0 -18.168 6.88574 -14.5332 20.6533c7.26562 41.3057 9.09082 51.2656 16.3564 92.5713c1.17676 5.87793 2.74316 7.09375 10.8994 10.3262c11.6074 4.39941 28.9336 12.3975 44.7949 19.4756c-0.830078 2.00879 -1.55566 3.23438 -2.95996 8.77637
c-0.823242 3.24414 -1.60645 9.16797 -2.25684 14.8018c-2.66211 1.76074 -5.51758 3.82324 -8.03711 5.35742c-4.89551 2.875 -8.64062 0.575195 -12.6992 -1.35938c-13.3926 -4.76855 -37.4307 -18.1768 -70.1875 -31.0137
c-17.8037 -7.96387 -20.3682 -0.345703 -24.3613 5.72559c-5.98633 9.10742 -4.22559 18.9619 9.27441 23.4912c38.5068 16.6182 48.0576 20.8096 86.5645 37.4307c5.55859 2.24512 7.43359 1.60449 14.6162 -3.43555c0.944336 -0.682617 2.36426 -1.58496 3.41309 -2.31641
c-0.0244141 5.51953 -0.0488281 11.252 -0.0693359 15.752c-0.0292969 6.88379 -3.67871 10.3105 -10.96 13.7207c-18.1982 6.80176 -40.0127 10.1475 -58.21 16.9512c-4.41016 1.87695 -9.02637 6.45703 -10.9463 10.2764
c-11.0088 24.0469 -19.0713 52.2588 -34.1064 83.6162c-3.67871 10.3086 -2.67188 16.0449 8.21387 19.5332c10.8838 3.49414 14.5801 -2.62695 18.2588 -12.9375c7.35938 -20.6201 18.335 -45.415 25.6943 -66.0352c2.29004 -6.62695 3.26758 -8.125 10.9443 -10.2773
c14.5488 -3.37891 32.04 -6.86328 46.5918 -10.2383c4.74316 -1.45996 4.55957 3.41309 4.55957 3.45996c-0.00195312 3.45996 1.72168 6.6875 5.47363 6.91016c2.04199 0.121094 260.257 0.121094 262.299 0c3.75195 -0.222656 5.47559 -3.4502 5.47363 -6.91016
c0 -0.046875 -0.183594 -4.91992 4.55957 -3.45996c14.5518 3.375 32.043 6.85938 46.5918 10.2383c7.67676 2.15234 8.6543 3.65039 10.9443 10.2773c7.35938 20.6201 18.335 45.415 25.6943 66.0352c3.67871 10.3105 7.375 16.4316 18.2588 12.9375
c10.8857 -3.48828 11.8926 -9.22461 8.21387 -19.5332c-15.0352 -31.3574 -23.0977 -59.5693 -34.1064 -83.6162c-1.91992 -3.81934 -6.53613 -8.39941 -10.9463 -10.2764c-18.1973 -6.80371 -40.0117 -10.1494 -58.21 -16.9512
c-7.28125 -3.41016 -10.9307 -6.83691 -10.96 -13.7207c-0.0205078 -4.5 -0.0449219 -10.2324 -0.0693359 -15.752c1.04883 0.731445 2.46875 1.63379 3.41309 2.31641c7.18262 5.04004 9.05762 5.68066 14.6162 3.43555
c38.5068 -16.6211 48.0576 -20.8125 86.5645 -37.4307z" />
    <glyph glyph-name="build" unicode="&#xe6c1;" 
d="M395.991 109.045l116.009 -110.085l-51.2012 -62.96c-37.21 39.2256 -92.0781 99.4639 -129.274 138.694l-66.5869 70.2256c-0.133789 -0.147461 -0.276367 -0.299805 -0.408203 -0.442383c-0.84375 -0.919922 -1.7168 -1.87012 -2.64062 -2.80371
c-24.3086 -24.3281 -48.6074 -48.627 -72.9092 -72.9258c-0.689453 -0.692383 -2.375 -2.38184 -3.0625 -3.29004c0.292969 -1.08496 1.20312 -3.23438 1.57812 -4.12109c5.5293 -13.1006 7.5 -27.0645 6.48438 -40.8594
c-0.104492 -1.66504 -0.550781 -3.27441 -0.751953 -4.93066c-0.600586 -4.60059 -1.2832 -9.16113 -2.61328 -13.6475c-0.90625 -3.14941 -2.31055 -6.12891 -3.57617 -9.18066c-0.958008 -2.27441 -1.52246 -4.66113 -2.67676 -6.87305
c-0.359375 -0.689453 -0.897461 -1.23828 -1.28125 -1.91016c-0.53125 -0.966797 -0.772461 -2.0293 -1.34082 -2.98047c-1.44434 -2.41309 -3.41602 -4.33691 -5.05859 -6.57324c-0.560547 -0.736328 -0.982422 -1.5918 -1.55371 -2.31738
c-0.0419922 0.0429688 -0.106445 0.0625 -0.149414 0.105469c-14.6699 -18.6904 -35.8418 -31.0498 -60.3193 -33.668c-12.6426 -1.35254 -24.3301 0.393555 -35.7295 5.33691l-8.24609 3.57812s37.9531 38.3975 49.0449 49.1973
c5.65234 5.50391 5.75 11.4482 0.288086 17.1875c-8.16113 8.56836 -18.4775 19.3701 -26.1162 27.2627c-5.50879 5.125 -11.2793 5.0918 -16.7344 -0.3125c-10.9951 -10.8975 -50.0664 -48.1562 -50.0664 -48.1562l-3.42871 8.30859
c-4.73926 11.4863 -6.27734 23.2002 -4.69629 35.8164c3.52832 28.2275 19.4375 52.3975 43.6445 66.3125c24.2207 13.9248 53.127 15.5088 79.3057 4.34863c1.83105 -0.78125 2.78125 -1.10547 3.27051 -1.23242c0.397461 0.292969 1.125 0.921875 2.45508 2.24805
c24.248 24.2383 49.3262 49.3076 74.3057 74.3789c0.216797 0.22168 0.72168 1.08496 1.0918 1.7168c0.413086 0.709961 0.850586 1.44922 1.3418 2.19922l0.363281 0.552734c-3.375 3.54688 -6.75195 7.0918 -10.1162 10.6162
c-4.83008 5.07422 -6.87695 10.583 -6.43945 17.3311c-0.0644531 0.713867 -0.923828 2.53711 -2.11816 3.74707c-19.877 20.1631 -40.2432 40.5293 -59.9395 60.2217c-5.9668 5.96875 -11.9355 11.9346 -17.8994 17.9062
c-0.873047 0.875 -1.72852 1.77832 -2.54297 2.64453l-1.49316 1.56738c-4.99316 -4.98242 -9.99805 -9.97363 -15.0264 -14.9893l-3.76172 -3.75l-4.69824 2.4707c-3.34375 1.76172 -7.625 2.65234 -14.0273 -4.0752
c-1.71387 -1.80176 -3.47559 -3.53125 -5.18066 -5.20801c-1.86621 -1.83496 -3.62695 -3.56641 -5.3125 -5.36328c-3.69434 -3.94238 -4.46875 -7.3418 -2.67578 -11.7344c1.31836 -3.18164 1.10449 -8.34668 -1.91797 -11.5781
c-4.30566 -4.57422 -8.75391 -9.06055 -13.0576 -13.4023c-1.45312 -1.4668 -2.90918 -2.93262 -4.35938 -4.4043l-5.10254 -5.17578l-49.083 49.0332l8.83008 8.83984c4.59668 4.61133 9.34863 9.38086 14.2305 14.0752c3.13184 2.99121 8.16504 3.17188 11.3164 1.83301
c3.26172 -1.36133 7.05566 -1.93066 12.3818 3.17578c3.68066 3.54688 7.3457 7.27051 10.7861 10.7754c4.92578 5.01562 5.46191 8.00195 2.61133 14.5332l-1.55371 3.56055l2.0918 3.23145c0.288086 0.513672 0.819336 1.47168 1.77637 2.4248
c6.74121 6.72754 13.5693 13.6113 20.1748 20.2676c15.5625 15.6855 31.6514 31.9043 47.9502 47.4326c27.2861 25.9805 59.5 40.3154 95.75 42.6055c1.71191 0.111328 3.38184 0.0888672 5.31543 0.0625c0.977539 -0.0136719 2.07324 -0.0292969 3.34961 -0.0292969
h26.3418l-22.6602 -13.4287c-0.810547 -0.482422 -1.51172 -0.901367 -2.13672 -1.27441c-1.42188 -0.850586 -2.48633 -1.48633 -3.56934 -2.08691c-23.042 -12.833 -42.2744 -29.1074 -57.1562 -48.3613c-3.08496 -3.99805 -5.92383 -8.9043 -8.93262 -15.4375
c-3.33008 -7.22852 -0.506836 -10.6924 0.421875 -11.8311l4.12305 -5.05957l-10.3594 -10.3379c-2.3623 -2.35645 -4.71875 -4.70703 -7.07812 -7.0625l1.08203 -0.988281c0.796875 -0.716797 1.69922 -1.52734 2.58984 -2.41992l15.165 -15.1445
c20.7363 -20.7129 42.1807 -42.1318 63.1982 -63.2881c1.81934 -1.83301 3.25195 -2.38379 6.19629 -2.36621h0.09375c4.96484 0 10.7324 -2.41504 14.7217 -6.17188c3.00391 -2.83496 6.01758 -5.68359 9.02637 -8.52441l0.142578 0.149414
c0.453125 0.479492 0.886719 0.946289 1.31055 1.40137c0.921875 0.991211 1.79688 1.93066 2.70312 2.8418l71.1006 71.123c1.06055 1.05957 2.71875 2.7207 3.44141 3.6377c-0.318359 1.10938 -1.21191 3.23438 -1.7832 4.5918
c-11.6445 27.7275 -8.35449 59.1475 8.79883 84.0518c17.0312 24.7256 44.9873 38.8926 74.7188 37.9082c5.03809 -0.161133 9.88477 -0.955078 15.0137 -1.79688c2.35254 -0.385742 4.78613 -0.786133 7.32129 -1.13574l13.6318 -1.88184
s-44.2676 -45.5049 -51.6357 -52.9062c-6.50488 -6.52734 -6.5 -12.1055 0.0126953 -18.6543c7.90918 -7.9668 16.123 -16.1875 25.1191 -25.1387c6.07812 -6.04883 11.7656 -6.02637 17.9033 0.0673828c8.25488 8.20703 50.418 49.6338 50.418 49.6338l3.56641 -10.6895
c7.54688 -22.6074 4.68066 -47.9443 -7.86621 -69.5156c-12.7744 -21.9619 -33.8564 -37.2773 -57.834 -42.0117c-18.4023 -3.63184 -36.4512 -1.73438 -53.6504 5.64746c-1.66699 0.711914 -2.55566 1.02051 -3.02832 1.14941
c-0.415039 -0.3125 -1.19043 -0.979492 -2.61621 -2.41016l-4.99609 -4.99316c-21.6689 -21.6592 -44.0781 -44.0566 -66.0508 -66.1348c-0.208008 -0.227539 -0.667969 -1.05078 -1.00488 -1.65332c-0.370117 -0.665039 -0.791992 -1.41797 -1.30566 -2.22559
l-0.841797 -1.32812c29.3574 -27.7969 58.6475 -55.585 87.3242 -82.79z" />
    <glyph glyph-name="calendar" unicode="&#xe612;" 
d="M512 396.77v-93.1904l-512 -0.0175781v59.0225v34.1855h127.838v35.5527c0 8.61035 7.92578 15.6777 17.6328 15.6777h1.37305c9.70898 0 17.6338 -7.06738 17.6338 -15.6777v-35.5527h185.478v35.5527c0 8.61035 7.92578 15.6777 17.6338 15.6777h1.39746
c9.68359 0 17.6318 -7.06738 17.6318 -15.6777v-35.5527h125.382zM145.351 321.297c19.1748 0 34.7119 13.835 34.7119 30.8613c0 10.7725 -6.19141 20.2393 -15.585 25.7646v-22.21c0 -8.62988 -7.9248 -15.6768 -17.6338 -15.6768h-1.37305
c-9.70703 0 -17.6328 7.04688 -17.6328 15.6768v23.0879c-10.2861 -5.35352 -17.1992 -15.2695 -17.1992 -26.6426c0 -17.0264 15.5371 -30.8613 34.7119 -30.8613zM367.469 321.297c19.1748 0 34.7119 13.835 34.7119 30.8623c0 10.751 -6.19141 20.2178 -15.5625 25.7422
v-22.1885c0 -8.62988 -7.94824 -15.6768 -17.6318 -15.6768h-1.39746c-9.70801 0 -17.6338 7.04688 -17.6338 15.6768v23.0879c-10.2852 -5.35352 -17.1982 -15.2695 -17.1982 -26.6426c0 -17.0264 15.5605 -30.8613 34.7119 -30.8613zM0 286.516h511.2v-0.78125h0.799805
v-349.734h-0.799805h-511.2v350.516zM356.015 249.163h-82.1572v-67.8174h82.1572v67.8174zM273.857 144.774v-67.8145h82.1572v67.8145h-82.1572zM237.343 76.96v67.8145h-82.1572v-67.8145h82.1572zM237.343 249.163h-82.1572v-67.8174h82.1572v67.8174zM36.5146 249.163
v-67.8174h82.1572v67.8174h-82.1572zM36.5146 144.774v-67.8145h82.1572v67.8145h-82.1572zM36.5146 -27.4287h82.1572v67.8174h-82.1572v-67.8174zM155.186 -27.4287h82.1572v67.8174h-82.1572v-67.8174zM273.857 -27.4287h82.1572v67.8174h-82.1572v-67.8174z
M474.686 -27.4287v67.8174h-82.1572v-67.8174h82.1572zM474.686 76.96v67.8145h-82.1572v-67.8145h82.1572zM474.686 181.346v67.8174h-82.1572v-67.8174h82.1572z" />
    <glyph glyph-name="camera" unicode="&#xe613;" 
d="M362.691 364.805h149.309v-391.469h-512v391.469h149.344v45.8594h213.348v-45.8594zM256.018 36.2764c72.5449 0 132.262 58.6543 132.262 132.263s-59.7168 132.262 -132.262 132.262c-72.5459 0 -132.263 -58.6533 -132.263 -132.262
c0 -72.5459 58.6543 -132.263 132.263 -132.263zM345.609 169.602c0 -49.0488 -40.543 -89.5918 -89.5918 -89.5918c-50.1475 0 -89.5928 40.543 -89.5928 89.5918c0 49.0498 39.4453 89.5928 89.5928 89.5928c50.1465 0 89.5918 -40.543 89.5918 -89.5928z" />
    <glyph glyph-name="cancel" unicode="&#xe618;" 
d="M512 409.382l-217.382 -217.382l217.382 -217.382l-38.6182 -38.6182l-217.382 217.382l-217.382 -217.382l-38.6182 38.6182l217.382 217.382l-217.382 217.382l38.6182 38.6182l217.382 -217.382l217.382 217.382z" />
    <glyph glyph-name="carbon" unicode="&#xe6c5;" 
d="M512 189.892l-76.9854 -131.822l-137.622 1.05273l-69.6025 -118.641l-152.388 1.05566l-75.4023 132.878l69.0752 117.585l-68.0195 119.696l77.5098 131.822l152.388 -1.05566l67.4922 -119.168l138.152 -1.05566zM93.3311 417.154l-55.5029 -94.873l64.875 0.305664
l40.165 65.5244l27.5742 -84.3965l18.3828 27.2656l75.1709 -0.103516l-48.333 85.2217zM31.6426 311.706v-0.0234375l-0.00683594 0.0136719zM37.6611 301.169l54.6143 -95.459v-0.527344l121.805 -0.52832l61.4795 105.098l-75.5088 0.116211l-36.251 -53.7334
l-26.8018 82.0283l-22.4512 -36.6367zM213.552 -33.1543l61.6924 104.406l-60.6367 107.038l-122.332 1.05566l-61.6914 -105.458l60.6357 -105.986zM297.92 85.4863l121.805 -1.05273l61.6914 105.458l-60.1113 105.983l-122.332 1.05566l-61.6924 -104.931v-0.527344z" />
    <glyph glyph-name="chat" unicode="&#xe65b;" horiz-adv-x="511" 
d="M480.423 42.6045l23.04 -59.6113l-62.5381 32.5488c-55.5898 30.3555 -64.3662 31.085 -78.2637 36.9375c-7.67871 -2.55957 -12.7988 -4.02441 -22.6738 -6.21875c-11.3369 -2.55957 -23.04 -4.3877 -34.377 -5.48438c1.82812 1.46289 2.92578 3.29102 4.3877 5.12109
c8.77734 11.3369 14.9961 23.4043 19.75 35.4727c0.366211 0 1.09668 0.366211 1.46191 0.366211c11.3379 2.56055 15.7256 3.65625 25.2344 7.31543l6.58301 2.55957l6.58301 -2.55957c1.09766 -0.366211 35.4746 -20.1162 78.2627 -41.3262
c-8.04395 21.9414 -24.502 57.0508 -17.9189 75.7031c3.65625 10.2383 9.50879 17.5537 14.627 23.7695l4.02441 4.75488c16.8213 22.3076 25.5986 47.9082 25.5986 73.5088c0 82.2861 -89.5986 149.578 -200.045 149.578c-100.571 0 -183.955 -55.9551 -197.851 -128
c-13.8975 -5.85254 -27.0645 -13.167 -38.7656 -21.9443v0.366211c0 102.766 106.056 186.149 236.616 186.149s236.616 -83.3838 236.616 -186.149c0 -33.6445 -11.3369 -66.5605 -33.2793 -95.4512l-4.38867 -5.48633
c-4.02246 -5.12012 -6.94824 -8.77637 -8.41016 -13.165c-0.366211 -1.82812 -0.366211 -4.02246 -0.366211 -6.58301c0 -13.5312 4.75391 -34.377 16.0918 -62.1719zM312.925 148.297c7.68066 -25.2344 5.48633 -48.6406 -5.12109 -70.583
c-2.92383 -7.31445 -7.31445 -14.2627 -12.4326 -20.8457c-5.12012 -6.58203 -10.6074 -12.8008 -16.458 -17.9199c-19.7471 -18.2852 -44.252 -29.6221 -71.3145 -36.207c-15.7256 -4.02246 -31.8164 -5.85059 -47.9082 -5.85059
c-17.9199 0 -36.2051 2.56055 -54.4912 7.68066c-1.09863 0 -2.56055 0.364258 -3.65625 0.364258c-2.19629 0 -4.39062 -0.364258 -6.21875 -1.09668c-23.04 -9.50879 -45.7139 -19.7471 -68.7549 -29.6221c-1.82812 -0.732422 -3.29004 -1.09863 -5.11816 -1.82812
c3.29004 12.0664 7.3125 23.7695 9.50684 35.4727c4.02441 19.3838 0.732422 37.3037 -10.9707 54.125c-30.3525 42.0586 -25.5986 95.4531 10.6074 132.755c2.92383 2.92578 5.84961 5.48633 8.77637 8.04688c10.6045 9.50879 22.3076 17.1875 34.7432 23.4062
c16.0898 7.67871 34.0117 12.7988 52.6611 15.7256c10.9727 1.46191 21.5781 2.19434 32.1826 2.19434c35.4756 0 69.1211 -9.14355 100.208 -28.8936c25.2344 -16.0908 44.6162 -37.3008 53.7588 -66.9238z" />
    <glyph glyph-name="check" unicode="&#xe617;" horiz-adv-x="507" 
d="M155.536 -13.0361l-155.536 155.536l38.7861 38.7861l116.75 -116.75l313.125 313.125l38.7852 -38.7861z" />
    <glyph glyph-name="checklist" unicode="&#xe619;" 
d="M133.648 85.376v-133.648h-133.648v133.648h133.648zM34.8506 50.5264v-63.9492h63.9482v63.9492h-63.9482zM512 42.208v-47.3125h-280.496v47.3125h280.496zM168.971 224.696l-110.619 -94.2744l-58.3516 69.459l30.1865 25.374l32.8232 -39.0811l80.3945 68.5166z
M512 216.212v-47.3125h-280.496v47.3125h280.496zM143.404 428.694l25.5664 -29.9941l-110.619 -94.2744l-58.3516 69.459l30.1865 25.374l32.8232 -39.0811zM512 390.216v-47.3125h-280.496v47.3125h280.496z" />
    <glyph glyph-name="circle-outline" unicode="&#xe61f;" 
d="M256 411.429c-124.343 0 -219.429 -95.0859 -219.429 -219.429s95.0859 -219.429 219.429 -219.429s219.429 95.0859 219.429 219.429s-95.0859 219.429 -219.429 219.429zM256 448v0c142.629 0 256 -113.371 256 -256s-113.371 -256 -256 -256s-256 113.371 -256 256
s113.371 256 256 256z" />
    <glyph glyph-name="circle" unicode="&#xe61a;" 
d="M0 192c0 141.385 114.615 256 256 256s256 -114.615 256 -256s-114.615 -256 -256 -256s-256 114.615 -256 256z" />
    <glyph glyph-name="clear" unicode="&#xe61b;" horiz-adv-x="534" 
d="M305.921 310.333l-149.255 -162.151l-31.3604 44.043c-13.2432 25.9111 7.72168 46.167 7.72168 46.167l22.3066 25.123l-155.334 143.929l37.5703 40.5566l155.413 -144.001l28.0986 31.0342c23.1953 20.8926 48.3389 2.15527 48.3389 2.15527zM522.623 169.124
c-3.27441 -7.5166 -6.97656 -15.5215 -10.7646 -22.9238c-45.2061 -89.1543 -119.981 -150.417 -162.678 -180.176c-35.9746 -27.6338 -55.1699 -30.0244 -55.1699 -30.0244l-42.7764 78.0234c-33.7148 54.4326 -76.334 113.736 -76.334 113.736l153.6 170.771
c26.6885 -23.6543 78.7344 -49.6973 118.983 -67.8926l-0.733398 0.523438l86.8516 -35.2617s-4.12793 -10.8389 -9.8584 -24.1699c-0.476562 -1.20117 -0.866211 -2.06445 -0.866211 -2.06445c-0.078125 -0.186523 -0.174805 -0.355469 -0.253906 -0.541992z
M494.963 179.382c0 -1.13086 -138.549 64.3809 -162.188 80.4932l-122.436 -133.178s84.8389 -128.865 95.5811 -155.721l34.3809 20.3887c-9.31445 14.5273 -18.7207 29.001 -28.2969 43.3574c-2.66992 4.00391 -5.35352 7.99609 -8.08398 11.959
c-3.09473 4.49121 -7.10254 10.1162 -4.2998 15.8271c2.41113 4.91406 8.32617 1.87402 11.7061 -0.260742c0 0 51.5537 -42.9678 59.0791 -47.2441l34.3828 31.1309l-52.6846 65.5449s-7.52734 15.0537 8.58496 9.68262c0 0 42.9688 -34.3799 71.9424 -44.0273
l26.8555 36.502s-48.9697 50.9434 -54.5518 58.7031c0 0 -5.31445 8.7832 5.15332 7.90137c0 0 54.5957 -32.2598 69.8203 -33.2852c0 0 16.1133 30.0713 15.0537 32.2256z" />
    <glyph glyph-name="clock" unicode="&#xe61d;" 
d="M256 448c141.384 0 255.998 -114.616 255.998 -256s-114.614 -256 -255.998 -256c-141.386 0 -256 114.616 -256 256s114.614 256 256 256zM256 -9.14258c110.908 0 201.141 90.2314 201.141 201.143s-90.2324 201.143 -201.141 201.143
c-110.911 0 -201.143 -90.2314 -201.143 -201.143s90.2314 -201.143 201.143 -201.143zM294.37 209.415l79.4512 -1.11133l-0.642578 -43.875l-82.623 1.15625c-8.04883 -11.7412 -20.8975 -19.9307 -36.207 -19.9307c-24.6748 0 -44.6768 20.002 -44.6768 44.6758
c0 17.8037 10.6006 32.8936 25.667 40.0742v114.024h43.875v-117.974c6.39062 -4.41309 11.7725 -9.97559 15.1562 -17.04z" />
    <glyph glyph-name="cloud" unicode="&#xe61e;" 
d="M418.884 226.868c51.4971 0 93.1162 -41.8047 93.1162 -93.2402s-41.6807 -93.1777 -93.1777 -93.1777h-353.793c-35.9209 0 -65.0293 29.1084 -65.0293 65.0918c0 35.9824 29.1709 65.0908 65.0918 65.0908c1.98145 0 3.93262 -0.124023 5.85254 -0.27832
c12.541 41.3711 50.9092 71.502 96.3984 71.502c1.39355 0 2.84863 -0.0625 4.21191 -0.09375c10.7764 57.9082 61.5615 101.787 122.627 101.787c66.1445 0 120.305 -51.5586 124.424 -116.682h0.27832z" />
    <glyph glyph-name="code-view" unicode="&#xe70e;" 
d="M34.2607 333.056c0 49.8018 31.2432 78.3525 85.7256 78.3525h20.3467v-47.5068h-18.7568c-23.6357 0 -32.418 -9.79395 -32.418 -36.1045c0 -9.88379 1.13867 -21.3047 3.57812 -35.9414c1.9873 -12.4141 3.83105 -26.0029 3.83105 -41.5791
c0.487305 -30.8281 -11.2939 -47.958 -25.5332 -57.4092c17.0215 -11.3662 25.9482 -31.3877 25.5332 -58.2217c0 -12.7578 -1.1748 -25.5879 -3.83105 -41.4893c-2.15039 -13.3721 -3.57812 -24.7197 -3.57812 -36.4297c0 -26.0205 9.39648 -36.6104 32.418 -36.6104
h18.7568v-47.5244h-20.3467c-55.2773 0 -85.7256 28.9482 -85.7256 81.4971c0 15.4678 2.40332 31.6221 4.33691 44.6328c2.11426 14.3477 4.12012 27.792 4.12012 41.3086c0 14.7275 -3.97559 29.7793 -33.4658 29.7793h-9.25195v45.4102h9.25195
c30.8818 0 33.4658 14.71 33.4658 29.7803c0 14.1123 -2.00586 28.1348 -4.1377 42.9707c-2.31348 16.2266 -4.31934 30.1592 -4.31934 45.085zM502.748 215.22h9.25195v-45.4102h-9.25195c-29.4902 0 -33.4658 -15.0518 -33.4658 -29.7793
c0 -13.2998 1.95117 -26.5273 4.01172 -40.5137c2.13184 -14.6006 4.44531 -30.2129 4.44531 -45.4277c0 -52.5488 -30.4307 -81.4971 -85.7256 -81.4971h-20.3467v47.5244h18.251c23.3105 0.397461 32.8877 11.0234 32.8877 36.6104
c0 8.99902 -1.15625 17.9619 -2.38477 27.4307l-1.19336 9.43262c-2.24023 13.1914 -4.30078 26.6719 -4.30078 41.2002c0 26.7441 9.03516 46.7295 25.8408 58.0771c-14.0586 9.45117 -25.8408 26.5635 -25.8408 57.4092c0 14.6914 2.13281 27.9365 4.22852 40.748
l1.12012 8.54688c1.30176 9.90234 2.53027 19.2627 2.53027 28.2256c0 25.5879 -9.10742 35.707 -32.5264 36.1045h-18.6123v47.5068h19.8047c54.8252 0 86.2676 -28.5508 86.2676 -78.3525c0 -14.709 -1.95215 -28.4248 -4.01172 -42.9531l-0.397461 -2.85449
c-2.09668 -14.6006 -4.04785 -28.3887 -4.04785 -42.248c0 -15.0703 2.60156 -29.7803 33.4658 -29.7803zM140.333 263.302h231.334v-15.2344h-231.334v15.2344zM140.333 324.401h231.334v-15.2354h-231.334v15.2354zM140.333 202.203h231.334v-15.2344h-231.334v15.2344z
M140.333 80.0059h231.334v-15.2344h-231.334v15.2344zM140.333 141.104h231.334v-15.2344h-231.334v15.2344z" />
    <glyph glyph-name="code" unicode="&#xe6f1;" 
d="M0 151.051v30.5615l173.156 116.166v-45.0078l-132.399 -86.4395l132.399 -86.4443v-45.002zM193.922 21.6572l100.662 340.686h35.5176l-101.026 -340.686h-35.1533zM338.841 297.753l173.159 -115.683v-31.4834l-173.159 -115.681v44.9971l133.396 86.4277
l-133.396 86.4277v44.9941z" />
    <glyph glyph-name="comment" unicode="&#xe710;" 
d="M430.189 434.201c27.293 -0.0117188 58.8682 0.196289 81.8105 0.283203v-354.585c-17.75 0 -46.3369 0.283203 -80.4375 0.169922c-65.4619 -0.216797 -130.927 -0.107422 -196.391 0.0380859c-4.00684 0.00878906 -5.86426 -1.18066 -7.23926 -4.89062
c-3.8125 -10.2861 -8.02832 -20.4219 -12.1094 -30.6074c-5.67578 -14.1738 -27.9971 -69.5332 -38.4258 -95.3613c-11.9551 29.6025 -41.0742 100.861 -50.8438 125.844c-1.56738 4.00391 -3.61426 5.05957 -7.63867 5.00195
c-14.1562 -0.203125 -28.3301 0.504883 -42.4707 0.0849609c-33.2773 -0.989258 4.73633 -0.279297 -37.1055 -0.279297c0 -0.303711 -0.00390625 -0.285156 -0.015625 0h-39.3232v284.125v70.5c23.8076 0.661133 121.964 -0.323242 145.788 -0.319336
c94.8008 0.0244141 189.603 0.0361328 284.401 -0.00390625zM472.25 118.524c0.291992 64.4912 0.267578 211.759 0 276.25c-116.319 0.0361328 -274.429 0.314453 -390.748 0.236328c-4.28516 -0.00390625 -37.8701 0.84375 -42.002 -0.236328
c-0.0800781 -53.6475 -0.185547 -194.464 -0.178711 -275.917c36.5068 0.541992 20.9463 0.446289 41.415 0.283203c18.3281 -0.147461 52.4336 -0.123047 70.7637 -0.00195312c3.04883 -7.56055 11.4238 -29.4443 14.4551 -37.0088
c3.57422 -8.91602 7.16113 -17.8242 11.293 -28.1006c6.70508 16.7881 19.5938 48.8877 25.752 64.3281c69.4912 0.00195312 199.759 0.100586 269.25 0.166992zM97.5 359.024h317v-18h-317v18zM97.5 299.024h317v-18h-317v18zM97.5 239.024h317v-18h-317v18zM97.5 179.024
h317v-18h-317v18z" />
    <glyph glyph-name="compare" unicode="&#xe610;" horiz-adv-x="452" 
d="M285.013 121.773v-43.0088l-23.4053 18.1387l-59.6855 46.2266l59.6855 50.0312l23.4053 19.6016v-47.9824l85.7236 -0.292969l0.292969 -42.7139h-86.0166zM300.113 108.071l83.3818 -69.6318l-83.3818 -64.3662v43.0068h-85.7236l0.292969 42.7158l85.4307 0.292969
v47.9824zM350.828 448l100.938 -95.3789v-314.221h-45.5498l-42.1299 35.1084h52.5713v263.021h-76.3613v76.3604h-159.414v-38.0332h-35.1084v73.1426h205.055zM289.352 -36.498v-23.6982l0.0820312 -3.80371h-289.434v409.6h195.73l100.645 -95.3779v-0.292969
l-35.1094 -29.5498v13.751h-76.3623v76.3613h-149.797v-339.382h226.159v23.6982h28.0859v-31.3057z" />
    <glyph glyph-name="computer" unicode="&#xe653;" 
d="M399.114 242.335h112.886v-205.335h-112.886v205.335zM399.5 347h112.5v-40h-112.5v40zM399.5 255v40h112.5v-40h-112.5zM104.667 65.7012h158l18.5273 -27.2529s-58.4736 0.737305 -111.085 0.737305c-42.2393 0 -80.6982 -0.475586 -82.1094 -2.18555zM0 302.033
h367.618v-227.919h-367.618v227.919zM43.8857 118h279.847v140.147h-279.847v-140.147z" />
    <glyph glyph-name="configarations" unicode="&#xe609;" horiz-adv-x="475" 
d="M362.057 111.543v-65.8291h95.0859v65.8291h-95.0859zM18.2852 111.543v-65.8291h95.0859v65.8291h-95.0859zM190.171 221.257v-65.8281h95.0859v65.8281h-95.0859zM387.656 448h47.543v-318.172h40.2285v-102.399h-40.2285v-91.4287h-47.543v87.7715h-43.8848v106.057
h40.2285v318.172h3.65625zM215.771 448h47.542v-208.457h40.2285v-102.4h-40.2285v-201.143h-47.542v201.143h-43.8857v102.4h40.2285v208.457h3.65723zM40.2285 448h47.543v-318.172h40.2285v-102.399h-40.2285v-91.4287h-47.543v91.4287h-40.2285v102.399h40.2285v318.172
z" />
    <glyph glyph-name="connector" unicode="&#xe700;" 
d="M312.144 338.321v-291.664c-64.7627 -8.48047 -156.782 33.6982 -183.142 97.6006c-5.12207 12.418 -11.5605 16.2861 -24.3389 15.7197c-21.9688 -0.973633 -104.488 -0.160156 -104.488 -0.160156s0.400391 12.8027 0.00878906 31.543
c-0.408203 19.4932 -0.00878906 32.9326 -0.00878906 32.9326s87.1143 -1.86914 93.959 -2.01172c24.7656 -0.515625 30.957 -2.5791 40.7178 20.9229c29.6357 71.3584 120.369 102.127 177.292 95.1172zM376.997 231.401v-79.9434
c26.9473 0 52.8691 0.0224609 78.79 -0.0136719c8.24414 -0.0107422 55.9404 -0.369141 55.9404 -0.369141s0.242188 -14.6084 -0.00488281 -31.627c-0.246094 -17.0107 0.00488281 -30.752 0.00488281 -30.752s-66.4111 -0.225586 -83.5889 -0.244141
c-16.4043 -0.0175781 -32.8076 -0.00390625 -52.8193 -0.00390625c0 -13.4062 -0.015625 -65.1797 -0.015625 -65.1797s-6.43066 0.21582 -23.5264 0.00292969c-17.1211 -0.213867 -24.3115 -0.00292969 -24.3115 -0.00292969l-0.0566406 337.479
s6.53125 -0.166992 23.6348 -0.00195312c18.376 0.175781 24.293 0.00195312 24.293 0.00195312s-0.00683594 -50.8848 -0.00683594 -65.1514c27.9111 0 54.4189 0.0126953 80.9268 -0.0078125c8.24414 -0.00683594 55.4707 -0.253906 55.4707 -0.253906
s-0.643555 -13.8242 -0.0244141 -29.998c0.65332 -17.0693 0.0244141 -32.1592 0.0244141 -32.1592s-88.1836 -0.428711 -117.039 -0.641602c-5.38379 -0.0390625 -10.7627 -0.671875 -17.6914 -1.13477z" />
    <glyph glyph-name="console" unicode="&#xe71d;" 
d="M236 166.821l-180.143 -119.643c-5.35742 -3.57129 -13.4824 -9 -23.9111 -9c-17.0176 0 -31.9463 15.5713 -31.9463 33.2852c0.661133 16.3223 9.80371 24.3223 18.6611 30.0361l145.446 96.6963l-144.661 95.9287c-10.1426 6.91113 -19.4463 15.375 -19.4463 30.8389
c0.661133 18.2686 15.1787 32.8574 32.3926 32.8574c7.35742 0 14.8936 -2.66016 23.0713 -8.16016l180.607 -120.107c8.91113 -5.67871 21.0537 -13.4648 20.375 -31.6787c0 -18.0176 -11.3389 -25.25 -20.4463 -31.0537zM506.578 89.2861
c4.53613 -6.82227 6.35742 -15.6436 4.96387 -24.1787c-1.46387 -8.85742 -6.25 -16.6074 -13.2139 -21.1787c-8.10742 -5.39258 -17.2861 -5.75 -23.3926 -5.75h-1.5l-204.071 0.213867c-10.8936 0.0361328 -22.5361 1.53613 -31.8398 14.4287
c-10 15.0713 -6.14258 36.2861 8.03613 45.6787c8.78516 5.78613 18.3926 5.71387 24.9463 5.71387l204.035 -0.177734c11.3574 -0.178711 22.5723 -1.57227 31.8223 -14.4287z" />
    <glyph glyph-name="constant" unicode="&#xe701;" 
d="M511.724 196.074l0.276367 -12.707l-0.275391 -1.24121c-0.586914 -12.3447 -2.72461 -24.7246 -6.37988 -36.4141c-7.48242 -23.9307 -18.8965 -43.1729 -34.8623 -58.793c-17.3447 -16.9658 -37.8271 -26.5176 -60.9307 -28.4141l-11.8271 -0.620117l-2.4834 0.30957
l-4.31055 0.379883c-2.79297 0.241211 -5.58594 0.482422 -8.34473 0.896484c-18 2.48242 -35.0684 8.93066 -52.1377 19.7236c-13.3447 8.37988 -25.793 19.1729 -40.3105 35c-9.96484 10.8965 -19.0342 22.5518 -27.3789 33.8965l-3.17285 -3.48242
c-6.75879 -7.44824 -13.5166 -14.9307 -20.4824 -22.1729c-15.6729 -16.2754 -31.0518 -29.2754 -47 -39.8271c-14.9141 -9.82715 -29.3447 -16.4824 -44.0859 -20.3789c-18.1211 -4.72461 -36.4658 -4.93164 -54.4658 -0.621094
c-19.707 4.75879 -37.4141 14.6211 -52.6377 29.3447c-14.1729 13.7588 -24.9141 30.4824 -31.9316 49.7588c-4.58594 12.6211 -7.41309 26 -8.37891 39.793l-0.603516 15.5518l0.258789 1.39648c0.310547 10.1211 1.62012 20.6553 3.93066 31.1035
c4.08594 18.4824 11.1553 35.207 21.0518 49.7588c9.9834 14.6895 22.2246 26.1895 36.3965 34.1377c21.9316 12.3447 46.3447 16.3623 72.6729 11.8965c17.3105 -2.94824 33.7236 -9.77539 50.1895 -20.8965c11.5 -7.72363 22.5 -17.2754 34.5859 -30.0518
c10.6035 -11.1895 20.9316 -23.8105 33.5352 -40.9658l1.87891 -2.55078l6.15527 7.20605c14.2754 16.6035 30.0342 34.1904 48.2754 50.0352c14.9658 12.9648 28.5518 21.9648 42.7588 28.3613c16.4141 7.3623 32.0693 10.6553 48.5859 9.55176
c17.4834 -1 34.5518 -6.60352 50.6553 -16.6719c21.5869 -13.4316 37.8965 -32.5342 48.4834 -56.7588c7.34473 -16.8623 11.3789 -35.0342 12.3096 -55.5342zM466.034 204.712c-0.171875 8.79297 -0.792969 15.2236 -2.1377 21.5
c-2.58594 12.0859 -6.68945 21.8271 -12.6211 29.793c-10.9307 14.7764 -25.2061 20.8281 -43.8965 18.5518c-10.8965 -1.34473 -21.793 -5.43066 -33.3096 -12.5c-13.1387 -8.01758 -25.6553 -18.3965 -40.5869 -33.6211c-15.1377 -15.3613 -29.2754 -31.9131 -43 -48.1025
l3.55176 -4.65527c4.55176 -6 9.13867 -12.0352 13.8965 -17.8623c10.4141 -12.8281 20.5869 -22.8623 31.0352 -30.6895c16.8271 -12.6553 34.1035 -18.0352 52.8965 -15.7588c11.4482 1.20703 21.3447 4.20703 30.3105 9.10352
c13.9648 7.65527 24.6201 19.0684 32.5518 34.9307c7.58594 15.0693 11.4824 32.1035 11.3096 49.3105zM227.379 197.764l-1.22363 1.62109c-3.82812 5.12012 -7.62109 10.1895 -11.5 15.2061c-11.7246 15.0869 -22.4307 26.3623 -33.707 35.4658
c-17.3965 14.0176 -35.4482 20.9141 -54.8965 20.9141c-3.05176 0 -6.15527 -0.172852 -9.29297 -0.517578c-12.3447 -1.32715 -23.4658 -5.32715 -33.0518 -11.8965c-13.4482 -9.22363 -23.3105 -21.793 -30.1377 -38.4307
c-6.43164 -15.6211 -9 -32.1729 -7.63867 -49.2412c1.12109 -13.8281 4.67285 -25.5176 10.8799 -35.7246c7.17188 -11.8965 16.8623 -19.4482 29.6201 -23.1035c10.4834 -3 21.6553 -2.96582 34.2422 0.0693359c13.2412 3.1377 26.2412 9.44824 39.7578 19.207
c11.0518 7.96484 21.6035 17.1377 31.3799 27.2412c8.41406 8.75879 16.5684 17.7588 24.7412 26.793l1.51758 1.68945c3.15527 3.48242 6.20605 7.05176 9.30957 10.707zM8.82715 188.298v0v0v0z" />
    <glyph glyph-name="contact" unicode="&#xe620;" 
d="M475.429 328.652h-438.857v-273.305h438.857v273.305zM512 365.224v0v-346.447h-512v346.447h512zM251.802 120.24c2.79883 -8.39551 4.19824 -18.1904 4.19824 -26.5869h-97.9541h-97.9531c0 8.39648 1.39941 18.1914 4.19824 25.1885
c2.79883 8.39551 6.99609 16.792 13.9932 20.9893c12.5938 8.39648 27.9863 12.5947 43.3789 18.1914c4.19824 1.39941 6.99707 2.79883 12.5947 6.99707c2.79883 1.39941 4.19824 5.59766 4.19824 8.39648v2.79785c-11.1953 13.9941 -19.5908 39.1816 -19.5908 60.1719
c0 30.7852 18.1914 39.1816 39.1807 39.1816c20.9902 0 39.1816 -8.39648 39.1816 -39.1816c0 -19.5908 -6.99609 -43.3799 -18.1914 -58.7725v-5.59668c1.39941 -4.19824 1.39941 -6.99707 4.19824 -8.39648c4.19824 -2.79883 6.99707 -4.19824 11.1943 -5.59766
c13.9941 -4.19727 29.3867 -9.79492 43.3799 -18.1914c6.99707 -4.19727 11.1943 -11.1943 13.9932 -19.5908zM454.312 222.999l-0.0712891 -25.3037l-161.781 0.296875l0.0693359 25.3037zM455.26 171.954l-0.0712891 -25.3037l-163.679 0.296875l0.0722656 25.3037z
M291.51 95.9023l0.0722656 25.3037l163.678 -0.296875l-0.0712891 -25.3037z" />
    <glyph glyph-name="contract" unicode="&#xe614;" 
d="M68.2207 180.901l173.346 -3.18848l-0.632812 -168.213l-44.4717 0.141602l0.361328 92.6367l-165.017 -166.932l-31.8066 30.5654l167.44 169.383l-100.052 1.84375zM512 416.746l-182.367 -183.362l99.8965 -1.83887l-0.868164 -43.7812l-173.364 3.20605
l0.6875 168.231l44.4355 -0.177734l-0.348633 -92.8174l180.158 181.141z" />
    <glyph glyph-name="copy" unicode="&#xe621;" horiz-adv-x="404" 
d="M268.433 80.8232v-36.5713l-199.314 0.364258v36.5713zM69.1182 186.514l199.314 -0.364258v-36.5713l-199.314 0.364258v36.5713zM69.1182 291.474l199.314 -0.364258v-36.5713l-199.314 0.363281v36.5723zM403.747 448v-472.502h-66.1943v-39.498h-337.553v450.561
h337.553v-374.491h29.623v399.359h-235.886v-6.58301h-36.5713v43.1543h309.028zM300.981 -24.502v36.5713v337.92h-169.691h-36.5713h-58.1475v-377.418h264.41v2.92676z" />
    <glyph glyph-name="cut" unicode="&#xe6f2;" 
d="M292.676 206.731l219.568 -226.903v-21.8838h-81.543l-175.985 181.548l-61.1875 -61.3105c5.62305 -12.5312 8.74121 -26.4072 8.74121 -41.0166c0 -55.8086 -45.3564 -101.165 -101.104 -101.165c-55.8086 0 -101.165 45.3564 -101.165 101.165
c0 55.748 45.3564 101.104 101.165 101.104c13.3867 0 26.2236 -2.62891 37.96 -7.39648l63.2666 62.5938l-59.416 61.3105c-12.7139 -5.80664 -26.8955 -9.04688 -41.8105 -9.04688c-55.8086 0 -101.165 45.3564 -101.165 101.104
c0 55.8086 45.3564 101.165 101.165 101.165c55.748 0 101.104 -45.3564 101.104 -101.165c0 -13.7539 -2.75098 -26.835 -7.70215 -38.7549zM101.165 306.857c22.0674 0 39.9775 17.9102 39.9775 39.9775c0 22.0664 -17.9102 40.0381 -39.9775 40.0381
c-22.0664 0 -40.0381 -17.9717 -40.0381 -40.0381c0 -22.0674 17.9717 -39.9775 40.0381 -39.9775zM101.165 -2.87305c22.0674 0 39.9775 17.9717 39.9775 40.0381s-17.9102 39.9775 -39.9775 39.9775c-22.0664 0 -40.0381 -17.9111 -40.0381 -39.9775
s17.9717 -40.0381 40.0381 -40.0381zM249.093 179.774c6.47949 0 11.7363 5.25684 11.7363 11.7363c0 6.41797 -5.25684 11.6758 -11.7363 11.6758c-6.41895 0 -11.6758 -5.25781 -11.6758 -11.6758c0 -6.47949 5.25684 -11.7363 11.6758 -11.7363zM328.863 216.695
l-50.9795 52.9971l164.985 154.967l69.2529 0.0683594v-36.6758z" />
    <glyph glyph-name="dashboard" unicode="&#xe622;" 
d="M262.739 240.51l112.444 90.2803s11.5898 12.0459 21.4258 2.7041c3.90723 -3.29199 8.20898 -10.6719 -1.79785 -20.6797c-9.60742 -9.60742 -84.6699 -108.813 -90.6807 -116.764c0.178711 -1.72754 0.523438 -3.40723 0.523438 -5.18164
c0 -27.8926 -22.6133 -50.5059 -50.5059 -50.5059c-27.8945 0 -50.5059 22.6133 -50.5059 50.5059c0 27.8945 22.6113 50.5059 50.5059 50.5059c2.94238 0 5.78613 -0.381836 8.59082 -0.865234zM254.148 212.893c-12.1641 0 -22.0234 -9.85938 -22.0234 -22.0234
c0 -12.1621 9.85938 -22.0215 22.0234 -22.0215c12.1611 0 22.0215 9.85938 22.0215 22.0215c0 12.1641 -9.86035 22.0234 -22.0215 22.0234zM256 404.114c-116.96 0 -212.114 -95.1543 -212.114 -212.114s95.1543 -212.114 212.114 -212.114
s212.114 95.1543 212.114 212.114s-95.1543 212.114 -212.114 212.114zM256 448v0c141.385 0 256 -114.615 256 -256s-114.615 -256 -256 -256s-256 114.615 -256 256s114.615 256 256 256zM443.198 204.479c0.657227 -4.26855 0.657227 -8.20996 0.657227 -12.4795
c0 -3.6123 0 -7.22559 -0.657227 -10.5098h-39.082c0.329102 3.61328 0.329102 6.89746 0.329102 10.5098c0 4.26953 -0.329102 8.53906 -0.657227 12.4795h39.4102zM389.01 126.974c3.6123 6.89648 6.56836 13.793 8.86719 21.3467l36.7822 -14.4502
c-2.29883 -7.22559 -5.25391 -14.4502 -8.53809 -21.3477zM422.837 278.374c3.6123 -6.89648 6.56836 -14.1221 9.19531 -21.3477l-36.126 -15.7637c-2.62695 7.22559 -5.58301 14.4502 -9.52441 21.0186zM396.563 67.8574
c-4.92676 -5.91113 -10.5098 -11.4941 -16.4209 -16.4209l-27.916 27.916c5.91113 4.92578 11.4941 10.5098 16.4209 16.4209zM304.277 51.7656c7.55371 2.62695 14.4502 5.58301 21.3477 9.19531l15.7637 -36.126c-6.89648 -3.6123 -14.1221 -6.89648 -21.3467 -9.19531z
M312.816 370.988c7.55371 -2.29883 14.7783 -4.92676 21.6758 -8.21094l-14.4502 -37.1113c-6.89746 3.28418 -13.7939 6.24023 -21.3477 8.53906zM256 43.5547c3.94141 0 7.55371 0 11.4951 0.657227v-39.4102c-3.61328 -0.657227 -7.55371 -0.657227 -11.4951 -0.657227
s-7.88184 0 -11.4951 0.657227v39.4102c3.94141 -0.657227 7.55371 -0.657227 11.4951 -0.657227zM256 379.855c3.94141 0 7.88184 0 11.4951 -0.657227v-39.4102c-3.94141 0.657227 -7.55371 0.657227 -11.4951 0.657227s-7.55371 0 -11.4951 -0.657227v39.4102
c3.61328 0.657227 7.55371 0.657227 11.4951 0.657227zM191.958 58.334c6.89746 -3.28418 13.7939 -6.24023 21.3477 -8.53906l-14.1221 -36.7832c-7.55371 2.29883 -14.7783 4.92676 -21.6758 8.21094zM170.611 359.165c6.89648 3.6123 14.1221 6.89648 21.3467 9.19531
l15.7646 -36.126c-7.55371 -2.62695 -14.4502 -5.58301 -21.3477 -9.19531zM144.01 95.1162c4.92578 -5.91113 10.5088 -11.4941 16.4209 -16.0918l-27.916 -28.2441c-5.91113 4.92578 -11.4941 10.1807 -16.0928 16.0928zM115.437 316.143
c4.92676 5.91113 10.5098 11.4941 16.4209 16.4209l27.916 -27.916c-5.91113 -4.92676 -11.4941 -10.5098 -16.4209 -16.4209zM116.094 142.737c2.62695 -7.22559 5.58301 -14.4502 9.52441 -21.0186l-36.4551 -16.0928c-3.6123 6.89648 -6.56836 14.1221 -9.19531 21.3477z
M77.3408 250.13c2.29883 7.22559 5.25391 14.4502 8.53809 21.3477l37.1113 -14.4512c-3.6123 -6.89648 -6.56836 -13.793 -8.86719 -21.3467zM107.884 202.51c-0.329102 -3.61328 -0.329102 -6.89746 -0.329102 -10.5098c0 -4.26953 0.329102 -8.53906 0.657227 -12.4795
h-39.4102c-0.657227 4.26855 -0.657227 8.20996 -0.657227 12.4795c0 3.6123 0 7.22559 0.657227 10.5098h39.082z" />
    <glyph glyph-name="database" unicode="&#xe623;" horiz-adv-x="393" 
d="M33.543 418.913c24.752 11.2041 51.6494 17.6562 78.5547 22.0469c64.1182 10.4629 130.283 9.80957 193.648 -4.52051c25.4658 -5.75879 50.749 -13.8457 72.8008 -27.8232c4.24707 -2.69141 8.46094 -5.69434 11.252 -9.87695s3.91406 -9.80566 1.65332 -14.2969
c-1.59863 -3.17676 -4.61133 -5.36914 -7.57812 -7.33008c-25.4551 -16.8271 -55.3486 -25.6777 -85.2578 -31.7275c-74.3115 -15.0312 -152.027 -13.9531 -225.489 4.7959c-7.92188 2.02148 -15.792 4.26465 -23.5303 6.91016
c-7.75098 2.65039 -15.373 5.70801 -22.71 9.35938c-7.2793 3.62207 -14.2773 7.83594 -20.748 12.7666c-1.44922 1.10352 -3.22656 2.20996 -4.38184 3.63184c-0.791992 0.976562 -0.978516 2.46191 -1.30371 3.64258c-1.03125 3.73438 -0.219727 7.79785 1.58203 11.1641
c0.329102 0.615234 0.694336 1.21094 1.09375 1.7832c3.13477 4.49512 7.87695 7.57715 12.6152 10.3301c5.78223 3.36133 11.7266 6.39551 17.7988 9.14453zM191.868 302.567c152.266 1.64551 199.546 39.417 199.546 39.417s0.852539 -79.3486 0 -88.4492
c-41.9268 -34.8037 -111.024 -45.4629 -162.787 -48.1904c-24.376 -1.55469 -160.514 -7.49805 -227.428 48.0479c-0.853516 9.10156 0 88.4492 0 88.4492s45.4434 -36.293 190.669 -39.2744zM191.868 172.88c152.266 1.64551 199.546 39.417 199.546 39.417
s0.852539 -79.3477 0 -88.4482c-41.9268 -34.8037 -111.024 -45.4629 -162.787 -48.1914c-24.376 -1.55469 -160.514 -7.49805 -227.428 48.0488c-0.853516 9.10059 0 88.4492 0 88.4492s45.4434 -36.293 190.669 -39.2754zM191.868 34.0918
c152.266 1.64551 199.546 39.417 199.546 39.417s0.852539 -79.3477 0 -88.4482c-41.9268 -34.8037 -111.024 -45.4629 -162.787 -48.1914c-24.376 -1.55469 -160.514 -7.49805 -227.428 48.0488c-0.853516 9.10059 0 88.4492 0 88.4492s45.4434 -36.293 190.669 -39.2754z
" />
    <glyph glyph-name="delete" unicode="&#xe624;" horiz-adv-x="449" 
d="M271.872 226.523v-243.347h59.1729v243.347h-59.1729zM118.784 226.523v-243.347h59.1729v243.347h-59.1729zM32.293 268.544h385.243v-332.544h-385.243v332.544zM127.817 448h193.792v-61.7324h127.781v-66.2314h-449.391v66.2314h127.817v61.7324v0z" />
    <glyph glyph-name="depend" unicode="&#xe6c6;" horiz-adv-x="377" 
d="M218.573 134.955c-10.9111 -2.3877 -21.835 4.45117 -24.3213 15.7686c-5.67871 25.8232 -11.0762 51.707 -16.6074 77.5645c-0.254883 1.18945 -0.705078 2.33887 -1.06445 3.50879c-0.25293 -0.104492 -0.506836 -0.209961 -0.758789 -0.3125
c0 -88.7031 0.0126953 -177.406 -0.046875 -266.107c-0.00292969 -3.85254 -0.119141 -7.86621 -1.16113 -11.5225c-3.4668 -12.1582 -15.1025 -19.2051 -27.9951 -17.4238c-11.8223 1.63184 -21.041 12.2207 -21.1162 24.875
c-0.154297 25.3711 -0.0585938 50.7412 -0.0605469 76.1113c0 25.5566 0.00488281 51.1123 0.00683594 76.668v5.72266h-16.5869v-7.74512c-0.00292969 -50.002 0.0556641 -100.002 -0.0400391 -150.002c-0.0361328 -18.5537 -17.0723 -30.668 -33.9248 -24.3867
c-10.1094 3.77051 -16.2295 12.9492 -16.2363 24.7305c-0.0380859 54.6289 -0.0244141 109.259 -0.0263672 163.888c-0.00292969 34.2393 0 68.4805 -0.881836 102.862c-2.64941 -12.3867 -5.2998 -24.7725 -7.94629 -37.1592
c-2.85938 -13.3809 -5.58984 -26.792 -8.60938 -40.1357c-2.78418 -12.29 -13.2412 -19.3613 -24.5342 -16.917c-12.1895 2.6377 -18.7695 13.2402 -16.0557 26.0371c10.7725 50.8311 21.6387 101.641 32.3105 152.494c1.75 8.34375 6.04883 14.8281 13.9688 17.2246
c12.8506 3.89062 25.915 7.78809 39.1699 9.47363c30.1182 3.83008 60.2363 2.96191 89.8281 -4.80762c4.79004 -1.25684 9.45898 -3.18359 13.9707 -5.26172c6.81055 -3.13867 10.873 -8.57812 12.4355 -16c10.8682 -51.5693 21.8477 -103.111 32.6738 -154.689
c2.39258 -11.4043 -4.86621 -21.9336 -16.3906 -24.458zM115.964 357.526c-24.6963 0.3125 -44.3887 21.0537 -44 46.3467c0.375 24.5693 20.9355 44.4287 45.6807 44.1221c25.1514 -0.307617 45.165 -20.6289 44.8369 -45.5244
c-0.341797 -25.7227 -20.5732 -45.2725 -46.5176 -44.9443zM376.846 76.9863c1.51074 -7.19629 -3.06934 -13.8408 -10.3438 -15.4346c-6.88379 -1.50684 -13.7773 2.80762 -15.3486 9.9502c-3.58203 16.2949 -6.98828 32.6299 -10.4795 48.9463
c-0.161133 0.75293 -0.444336 1.47852 -0.671875 2.21484c-0.15918 -0.0644531 -0.319336 -0.131836 -0.477539 -0.196289c0 -55.9775 0.00878906 -111.953 -0.0292969 -167.929c-0.00195312 -2.43066 -0.0761719 -4.96191 -0.734375 -7.27051
c-2.1875 -7.67383 -9.5293 -12.1201 -17.665 -10.9951c-7.45996 1.0293 -13.2773 7.71191 -13.3262 15.6963c-0.0986328 16.0107 -0.0380859 32.0205 -0.0380859 48.0312c0 16.127 0.00195312 32.2549 0.00488281 48.3818v3.60938h-10.4668v-4.88672
c-0.00195312 -31.5527 0.0361328 -63.1064 -0.0263672 -94.6582c-0.0224609 -11.71 -10.7725 -19.3545 -21.4062 -15.3906c-6.38184 2.37988 -10.2441 8.17188 -10.248 15.6055c-0.0244141 34.4746 -0.015625 68.9482 -0.015625 103.424
c-0.00195312 21.6074 -0.00195312 43.2139 -0.558594 64.9102c-1.67188 -7.81641 -3.34375 -15.6309 -5.0127 -23.4482c-1.80371 -8.44434 -3.52734 -16.9062 -5.43359 -25.3281c-1.75684 -7.75684 -8.35645 -12.2188 -15.4814 -10.6768
c-7.69238 1.66602 -11.8438 8.35547 -10.1348 16.4336c6.7998 32.0762 13.6562 64.1406 20.3906 96.2295c1.10547 5.26562 3.81738 9.35742 8.81543 10.8711c8.10938 2.45508 16.3545 4.91504 24.7188 5.97754c19.0068 2.41699 38.0127 1.87012 56.6846 -3.0332
c3.02539 -0.794922 5.97168 -2.00977 8.81738 -3.32227c4.29688 -1.97949 6.86133 -5.41211 7.84863 -10.0957c6.85938 -32.542 13.7871 -65.0693 20.6182 -97.6162zM301.749 202.005c-15.582 0.198242 -28.0088 13.2871 -27.7656 29.2471
c0.237305 15.5049 13.2129 28.0361 28.8281 27.8438c15.8711 -0.194336 28.5029 -13.0176 28.2949 -28.7275c-0.216797 -16.2344 -12.9844 -28.5713 -29.3574 -28.3633z" />
    <glyph glyph-name="deploy" unicode="&#xe625;" horiz-adv-x="507" 
d="M499.457 448h7.25586v-14.6123c-3.62793 -43.8398 -10.8838 -84.0264 -29.0205 -120.56c-14.4541 -36.3945 -36.126 -65.5381 -64.9844 -94.6533l0.0253906 0.0107422c-0.0605469 -0.0625 -0.125 -0.12207 -0.185547 -0.18457
c-0.0537109 -0.0537109 -0.0957031 -0.107422 -0.149414 -0.160156c-0.0644531 -0.0654297 -0.135742 -0.123047 -0.200195 -0.1875c-42.5654 -44.4023 -88.5127 -82.9561 -134.779 -123.889c-2.96777 -1.58789 -3.39648 -4.46484 -3.46777 -7.3457
c-0.700195 -29.0117 1.3916 -54.3936 2.04004 -79.7783c0.185547 -7.25098 0.185547 -7.25098 -3.37598 -10.9707c-17.8896 -14.9707 -35.7793 -29.9443 -53.6689 -44.915c-3.55859 -3.71973 -7.21094 -3.8125 -7.39648 3.44043
c-0.260742 27.0186 -21.4688 83.0166 -21.4688 83.0166l-31.2373 -22.6777c-7.21094 -3.8125 -14.5166 -4 -18.2598 -0.46582l-47.9414 48.0547l-13.9658 13.2383c-3.62695 3.65234 -3.62695 10.96 0 18.2666l21.8701 31.8047s-56.5186 19.7715 -83.5371 19.3408
c-7.25391 0 -7.25391 3.65527 -3.62598 7.30762c14.5098 18.2666 29.0186 36.5332 43.5283 54.7998c3.62793 3.65234 3.62793 3.65234 10.8818 3.65234c25.3926 0 50.8193 -1.44043 79.8027 0c2.88086 0.144531 5.74609 0.646484 7.25586 3.6543
c39.9023 47.4932 76.1748 94.9863 119.705 138.827c29.0195 32.8809 65.2939 54.7998 108.822 73.0664c36.2744 14.6143 76.1768 21.9189 116.077 21.9189zM350.733 331.095c-21.7656 0 -39.9004 -18.2666 -39.9004 -40.1875c0 -21.9189 18.1348 -40.1855 39.9004 -40.1855
c21.7646 0 39.9023 18.2666 39.9023 40.1855c0 21.9209 -18.1377 40.1875 -39.9023 40.1875zM141.829 -13.7119c-37.9932 -45.9883 -85.6904 -51.7471 -140.465 -50.0293l0.332031 0.37793l-0.451172 -0.430664c-4.05664 54.6494 -0.338867 102.549 43.9834 142.473
c7.77637 -6.75 7.77637 -6.75 4.69922 -14.3057c-25.3203 -57.248 -15.2139 -89.0488 -15.2139 -89.0488c0.100586 -0.241211 0.237305 -0.457031 0.333984 -0.704102c0 0 0.81543 -1.40918 1.38965 -1.91602c0.522461 -0.439453 1.87207 -1.03516 1.87207 -1.03516
c0.248047 -0.0839844 0.467773 -0.210938 0.708984 -0.300781c0 0 32.2021 -8.7373 88.3184 19.0039c7.41699 3.39746 7.41699 3.39746 14.4922 -4.08398z" />
    <glyph glyph-name="deprecate" unicode="&#xe6cb;" 
d="M0 210.843v237.102h3.1543c29.6357 0 59.2715 -0.0273438 88.9062 0.0556641c2.16406 0.00585938 3.32129 -0.638672 4.4043 -2.49707c6.7168 -11.5293 13.6104 -22.9551 20.333 -34.4805c1.125 -1.92969 2.35645 -2.65332 4.63477 -2.65039
c50.5215 0.0722656 101.043 0.0556641 151.564 0.0556641h3.28125v-26.3896h-235.639c-1.73047 -7.55371 -16.7188 -99.2363 -16.7188 -99.2363l2.28223 -6.05762s17.5742 61.4678 26.3184 92.0537h263.427c-1.86914 -6.48242 -3.70215 -12.8467 -5.54102 -19.21
c-13.0869 -45.2852 -26.1904 -90.5654 -39.2129 -135.868c-0.616211 -2.14453 -1.37305 -2.94336 -3.76074 -2.94141c-88.1533 0.0771484 -176.307 0.0644531 -264.46 0.0644531h-2.97363zM191.626 -63.9346h-3.04297v242.706h3.22852
c30.3359 0 60.6729 -0.0273438 91.0078 0.0576172c2.21484 0.00585938 3.40039 -0.65332 4.50879 -2.55664c6.875 -11.8018 13.9316 -23.4971 20.8135 -35.2949c1.15234 -1.97559 2.41211 -2.7168 4.74414 -2.71387c51.7158 0.0751953 103.432 0.0576172 155.147 0.0576172
h3.35938v-27.0137h-241.21c-1.77148 -7.73242 -17.1133 -101.582 -17.1133 -101.582l2.33594 -6.2002s17.9893 62.9199 26.9404 94.2295h269.654c-1.91406 -6.63574 -3.79004 -13.1514 -5.67188 -19.665c-13.3965 -46.3545 -26.8105 -92.7051 -40.1406 -139.079
c-0.630859 -2.19531 -1.40527 -3.0127 -3.84863 -3.01074c-90.2373 0.078125 -180.475 0.0654297 -270.713 0.0654297zM368.467 26.5771h14.3779v-59.127h-14.3779v59.127zM331.271 26.5771h14.3779v-59.127h-14.3779v59.127zM310.256 36.7871v-80.7998h93.6035v80.7998
h-93.6035zM333.466 80.3896v0v-14.999h-31.0566v-16.0928h109.19v16.0928h-31.0479v14.999h-47.0859zM402.494 216.692c0 0 17.2881 29.1836 23.9932 44.9648c8.6709 20.4102 16.373 41.6758 17.0293 63.9092c0.807617 27.3467 -14.2803 47.0273 -40.6963 54.3545
c-20.0078 5.55078 -42.1074 4.95801 -62.5898 2.80371c-8.96875 -0.944336 -20.3994 -1.21094 -28.8828 -4.73535c0.00683594 0.00292969 18.6211 7.73535 48.7549 12.9805c23.3848 2.93164 48.7998 5.41992 70.542 -5.73535
c19.1045 -9.80176 32.2578 -28.2988 36.4473 -49.248c6.02344 -30.124 -0.291016 -62.4111 -8.99707 -91.3779c-2.30469 -7.66602 -4.92773 -15.2285 -7.82324 -22.6904l-6.26562 -13.248c0.261719 0.0537109 67.9941 13.832 67.9941 13.832l-104.522 -52.1367
l-56.6484 102.6l16.0283 -15.8223z" />
    <glyph glyph-name="design-view" unicode="&#xe70f;" horiz-adv-x="499" 
d="M499.059 74.8457v-138.954h-499.059v138.954h233.873v234.201h-233.873v138.953h499.059v-138.953h-233.873v-234.201h233.873zM31.3135 416.687v-76.3262h436.432v76.3262h-436.432zM467.745 -32.7949v76.3271h-436.432v-76.3271h436.432z" />
    <glyph glyph-name="devices" unicode="&#xe704;" horiz-adv-x="472" 
d="M468.114 363.886h3.65723v-358.4h-204.801v-32.9141h91.4287v-40.2285h-241.371v40.2285h84.1143v32.9141h-153.601h-47.542v358.4h62.1709v-25.5996h-32.9141v-259.657h409.6v259.657h-25.5996v25.5996h54.8574zM237.714 56.6855
c-10.9717 0 -18.2861 -7.31445 -18.2861 -18.2852c0 -10.9717 3.65723 -18.2861 14.6289 -18.2861s18.2861 7.31445 18.2861 18.2861c0 10.9707 -3.65723 18.2852 -14.6289 18.2852zM270.628 199.314v204.8h120.686v-102.4v-102.399h-120.686zM329.143 210.286
c7.31445 0 10.9717 3.65625 10.9717 10.9707s-3.65723 10.9717 -10.9717 10.9717s-10.9717 -3.65723 -10.9717 -10.9717c0 -3.65723 3.65723 -10.9707 10.9717 -10.9707zM369.371 382.172h-80.457v-135.314v-7.31445h80.457v0v142.629zM91.4277 140.8v307.2h219.429
l-3.65723 -25.5996h-193.828v-241.372h193.828v-40.2285h-215.771zM201.143 173.714c-7.31445 0 -10.9717 -7.31348 -10.9717 -14.6279c0 -3.65723 3.65723 -10.9717 10.9717 -10.9717s10.9717 7.31445 10.9717 14.6289s-3.65723 10.9707 -10.9717 10.9707z" />
    <glyph glyph-name="dgm-action-invoke" unicode="&#xe712;" 
d="M415.988 158.362l43.7334 -45.4121l-44.1025 -43.7793l-11.3975 11.4756l24.3271 24.1367l-128.746 -1.47949l-0.183594 16.1748l129.927 1.49316l-25.2188 26.1777zM326.44 18.083l-11.6602 -11.2139l-43.7334 45.4121l44.1016 43.7803l11.3975 -11.4766
l-24.3262 -24.1367l128.745 1.48047l0.18457 -16.1748l-129.928 -1.49414zM365.384 211.577c-71.2227 0 -128.961 -57.7383 -128.961 -128.961c0 -71.2236 57.7383 -128.961 128.961 -128.961c71.2236 0 128.961 57.7373 128.961 128.961
c0 71.2227 -57.7373 128.961 -128.961 128.961zM365.384 229.231v0c80.8447 0 146.616 -65.7715 146.616 -146.615c0 -80.8447 -65.7715 -146.616 -146.616 -146.616c-80.8438 0 -146.615 65.7715 -146.615 146.616c0 80.8438 65.7715 146.615 146.615 146.615z
M142.905 367.422c36.2939 0 65.8359 -29.541 65.8359 -65.835s-29.542 -65.835 -65.8359 -65.835c-36.293 0 -65.8164 29.541 -65.8164 65.835s29.5234 65.835 65.8164 65.835zM142.905 348.216c-25.6963 0 -46.6094 -20.9141 -46.6094 -46.6289
s20.9131 -46.6289 46.6094 -46.6289c25.7158 0 46.6289 20.9141 46.6289 46.6289s-20.9131 46.6289 -46.6289 46.6289zM290.069 270.563l-30.6855 -3.95703c-2.28906 -7.67188 -5.43945 -15.1934 -9.37891 -22.4336l19.8262 -25.0205l-43.8721 -44.3027l-25.6582 20.0879
c-7.24023 -3.82617 -14.8926 -6.93945 -22.8271 -9.22852l-3.90137 -32.1484l-62.3467 -0.112305l-3.93848 33.0674c-7.24023 2.28809 -14.2363 5.25195 -20.8574 8.81543l-25.8838 -20.4258l-44.1719 44.0029l20.5947 26.165
c-3.39453 6.37793 -6.20801 13.0732 -8.40234 19.9756l-28.4912 3.5459l0.602539 4.78223l-0.110352 53.7539l-0.567383 4.80371l27.4971 3.28223c2.1377 7.61523 5.06445 15.0059 8.70312 22.0205l-19.7695 24.6084l43.459 44.6973l24.8896 -19.1318
c7.78418 4.33301 15.8867 7.76465 24.1963 10.2217l3.93848 30.3672h62.1592l3.48828 -30.4043c8.14062 -2.43848 15.9805 -5.7207 23.3896 -9.80957l24.0273 18.7939l43.9834 -44.209l-19.2256 -24.1963c3.73242 -7.08984 6.71484 -14.4229 8.90918 -21.8701
l30.4238 -3.50684v-62.2344zM243.759 284.519l26.541 3.41406v27.2344l-26.2783 3.01953l-2.60645 9.90332c-2.08203 7.89648 -5.27051 15.7363 -9.49121 23.2764l-4.87695 8.75977l16.4873 20.7637l-19.207 19.2812l-20.7256 -16.2051l-8.77832 5.13867
c-7.63379 4.4834 -15.8867 7.95312 -24.5898 10.3164l-9.79004 2.64453l-3.00195 26.165h-27.1592l-3.39453 -26.2402l-9.69727 -2.56934c-8.70312 -2.32617 -17.1621 -5.9082 -25.1523 -10.6543l-8.74023 -5.13867l-21.4951 16.5059l-19.0195 -19.5254l17.0879 -21.2891
l-4.8584 -8.79688c-4.03223 -7.2959 -7.14648 -15.1553 -9.22852 -23.3516l-2.5127 -9.97852l-27.7227 -3.30078l0.0751953 -27.3096l28.21 -3.4707l2.77539 -9.47168c2.23242 -7.63379 5.29004 -14.9111 9.11621 -21.626l4.98926 -8.75977l-17.9121 -22.751
l19.2812 -19.207l22.5645 17.8184l8.7959 -5.04492c6.97754 -4.0332 14.5176 -7.22168 22.377 -9.49121l9.54688 -2.73828l3.39551 -28.585l27.29 0.0751953l3.43262 28.0781l9.84766 2.57031c8.4209 2.17578 16.5244 5.45801 24.083 9.73438l8.70312 4.91406
l22.1514 -17.3496l19.1689 19.3379l-17.2373 21.7578l5.08301 8.81543c4.38867 7.61523 7.72754 15.5674 9.88477 23.6328z" />
    <glyph glyph-name="dgm-action" unicode="&#xe711;" 
d="M288.833 429.681l-64.2793 -0.135742l-4.86621 -39.874l-1.50781 -12.3516l-12.043 -3.13086c-15.8125 -4.11035 -31.0664 -10.2744 -45.3369 -18.3203l-10.6367 -5.99805l-9.61621 7.52832l-31.7061 24.8213l-45.1973 -45.6289l24.3848 -30.7734l7.71582 -9.73828
l-6.21094 -10.7598c-8.26074 -14.3115 -14.5225 -29.2979 -18.6113 -44.5449l-3.17285 -11.8281l-12.1445 -1.57031l-37.3193 -4.82227v-64.1738l36.5801 -4.2041l12.416 -1.42676l3.18066 -12.0859c3.93945 -14.9717 9.94434 -29.7305 17.8477 -43.8643l5.98242 -10.7012
l-7.62695 -9.59863l-23.1855 -29.1787l45.292 -45.5166l28.876 22.582l9.79297 7.65918l10.7236 -6.29004c14.4316 -8.4668 29.998 -14.9893 46.2656 -19.3877l11.9844 -3.24023l1.41016 -12.333l4.17676 -36.5078h64.0391l4.7666 36.7627l1.5752 12.1543l11.8408 3.16113
c16.3877 4.37598 32.3369 11.1152 47.4033 20.0303l10.6465 6.30078l9.80859 -7.54004l30.2744 -23.2715l44.8174 46.0537l-24.1738 30.0977l-7.68359 9.56641l5.94043 10.7373c7.64844 13.8252 13.5029 28.6436 17.3984 44.043l3.08105 12.1826l12.4775 1.49023
l39.0352 4.66211l-0.133789 64.3145l-40.7031 5.03711l-11.9463 1.47852l-3.36523 11.5576c-4.16602 14.3115 -9.94043 28.0068 -17.1641 40.707l-6.08008 10.6885l7.60547 9.66211l25.7324 32.6914l-45.4971 45.3076l-32.2578 -25.4648l-9.71484 -7.66895l-10.7295 6.16895
c-13.2178 7.59863 -27.3984 13.6025 -42.1475 17.8447l-11.667 3.35547l-1.43652 12.0557zM255.438 73.207c-65.5586 0 -118.895 53.3359 -118.895 118.895s53.3359 118.895 118.895 118.895c65.5596 0 118.896 -53.3359 118.896 -118.895
s-53.3359 -118.895 -118.896 -118.895zM305.066 448v0l6.83496 -57.3857c16.127 -4.63867 31.6406 -11.1914 46.2061 -19.5654l44.9941 35.5195l68.5244 -68.2393l-35.7969 -45.4775c8.00586 -14.0742 14.2939 -29.0615 18.8281 -44.6357l56.709 -7.01758l0.201172 -96.71
l-55.1855 -6.59082c-4.28027 -16.917 -10.6836 -33.1514 -19.126 -48.4111l34.3027 -42.709l-67.4463 -69.3066l-43.1748 33.1875c-16.2979 -9.64355 -33.7061 -17.0762 -51.9971 -21.9609l-6.83301 -52.6973h-96.4189l-6.03125 52.7158
c-17.834 4.82129 -34.834 11.9326 -50.7451 21.2656l-41.6582 -32.5781l-68.2139 68.5527l33.3086 41.9189c-8.46387 15.1367 -15.1279 31.2529 -19.5703 48.1348l-52.7783 6.06445v96.5537l53.2598 6.88379c4.6084 17.1807 11.5537 33.5596 20.4365 48.9492
l-34.4531 43.4805l68.0576 68.707l44.5186 -34.8525c15.6699 8.83594 32.293 15.5615 49.7168 20.0908l6.82324 55.9102zM255.438 91.4922v0c55.5645 0 100.609 45.0449 100.609 100.609s-45.0449 100.609 -100.609 100.609s-100.608 -45.0449 -100.608 -100.609
s45.0449 -100.609 100.608 -100.609z" />
    <glyph glyph-name="dgm-connector" unicode="&#xe6f4;" horiz-adv-x="450" 
d="M405.081 69.3809c-38.2139 -45.9326 -76.7949 -79.6377 -115.732 -101.137c-38.9492 -21.4883 -80.1084 -32.2441 -123.458 -32.2441c-52.1738 0 -92.8623 14.6914 -122.075 44.0986c-29.208 29.3818 -43.8154 68.8809 -43.8154 118.484
c0 56.2178 15.7119 111.519 47.123 165.89c31.416 54.3711 73.6611 98.5664 126.759 132.548c53.0918 33.9824 105.176 50.9795 156.245 50.9795c40.0479 0 69.998 -8.35352 89.8379 -25.0732c19.8408 -16.7188 29.7578 -37.2051 29.7578 -61.4453
c0 -22.791 -6.98438 -42.2627 -20.9385 -58.4268c-10.292 -12.4951 -22.9668 -18.7354 -38.0322 -18.7354c-11.3896 0 -20.8545 3.66895 -28.3809 11.0215c-7.5332 7.35156 -11.2998 16.5381 -11.2998 27.5596c0 6.97754 1.37695 13.3994 4.13477 19.291
c2.75293 5.86621 8.4502 12.9521 17.0879 21.21c8.625 8.26855 13.8643 14.2441 15.7051 17.9141c1.83496 3.66992 2.75293 7.5332 2.75293 11.5771c0 7.71387 -3.49512 14.1357 -10.4727 19.29c-10.6592 7.33984 -25.7188 11.0215 -45.1904 11.0215
c-36.0107 0 -71.6465 -12.6748 -106.92 -38.0254s-65.4053 -61.373 -90.3809 -108.03c-30.1318 -56.5811 -45.1973 -113.161 -45.1973 -169.741c0 -37.4834 10.6533 -67.1553 31.9658 -89.0049c21.3066 -21.874 50.334 -32.7998 87.0801 -32.7998
c28.29 0 56.3027 7.07422 84.0498 21.2227c27.7344 14.1357 58.874 39.7646 93.4111 76.8848z" />
    <glyph glyph-name="dgm-constant-definition" unicode="&#xe6f5;" 
d="M191.9 66.416c-18.1055 -21.7646 -36.3818 -37.7275 -54.8281 -47.9102c-18.4502 -10.1826 -37.9492 -15.2734 -58.4844 -15.2734c-24.7168 0 -43.9932 6.95508 -57.8311 20.8867c-13.8379 13.9248 -20.7568 32.6367 -20.7568 56.1348
c0 26.6309 7.44141 52.8271 22.3232 78.5879c14.8818 25.7568 34.8955 46.6914 60.0508 62.792c25.1514 16.0967 49.8242 24.1504 74.0186 24.1504c18.9688 0 33.1582 -3.95996 42.5576 -11.8789c9.39941 -7.92383 14.0986 -17.624 14.0986 -29.1123
c0 -10.7949 -3.30664 -20.0166 -9.9209 -27.6748c-4.87402 -5.91797 -10.8789 -8.87695 -18.0156 -8.87695c-5.39551 0 -9.88184 1.73633 -13.4463 5.22168c-3.56836 3.48047 -5.35156 7.83203 -5.35156 13.0547c0 3.30273 0.652344 6.35254 1.95801 9.1377
c1.30469 2.78125 4.00293 6.13574 8.09375 10.0518c4.08691 3.91602 6.56641 6.74512 7.44043 8.48535c0.871094 1.7373 1.30566 3.56445 1.30566 5.4834c0 3.65527 -1.65723 6.69727 -4.96094 9.1377c-5.05078 3.48145 -12.1836 5.22168 -21.4092 5.22168
c-17.0615 0 -33.9414 -6.00488 -50.6514 -18.0146c-16.71 -12.0107 -30.9824 -29.0723 -42.8184 -51.1738c-14.2734 -26.8047 -21.4092 -53.6172 -21.4092 -80.416c0 -17.7539 5.04785 -31.8164 15.1426 -42.165c10.0918 -10.3574 23.8467 -15.5352 41.2529 -15.5352
c13.4023 0 26.6709 3.35059 39.8154 10.0518c13.1416 6.69434 27.8936 18.835 44.2549 36.4219zM512 380.768l-89.8145 -308.085c-4.87402 -16.71 -7.31055 -27.6758 -7.31055 -32.8975c0 -1.74121 0.739258 -3.39453 2.21875 -4.96094
c1.47266 -1.56641 3.00293 -2.34961 4.56934 -2.34961c2.25586 0 4.96094 1.13086 8.09375 3.39355c5.91113 4.17773 15.832 14.6211 29.7646 31.3311l8.87695 -5.48242c-12.5322 -17.4062 -25.1953 -31.5049 -37.9893 -42.2969
c-12.793 -10.792 -24.7666 -16.1875 -35.8994 -16.1875c-5.91797 0 -10.7988 2.08887 -14.6211 6.26562c-3.8291 4.17773 -5.74414 10.0889 -5.74414 17.7549c0 9.9209 2.61133 23.2363 7.83301 39.9463l10.1826 32.375
c-25.2393 -38.9961 -48.2148 -65.9688 -68.9277 -80.9375c-14.2734 -10.2695 -27.9365 -15.4043 -40.9912 -15.4043c-13.2285 0 -24.7676 5.87402 -34.5977 17.623c-9.83496 11.749 -14.752 27.7119 -14.752 47.9102c0 25.9355 8.26465 53.6104 24.8037 83.0264
c16.5391 29.4131 38.3838 53.3496 65.5371 71.7998c21.4092 14.791 41.0781 22.1924 59.0059 22.1924c9.39941 0 17.4932 -1.91797 24.2812 -5.74414c6.78906 -3.8291 13.4824 -10.1816 20.1045 -19.0596l25.5869 90.8594c1.91406 6.43652 3.48047 11.5752 4.69922 15.4043
c2.08887 6.95898 3.13281 12.7031 3.13281 17.2324c0 3.65527 -1.30566 6.69727 -3.91602 9.1377c-3.65527 2.95898 -8.35449 4.43848 -14.0986 4.43848c-4.01074 0 -10.6182 -0.612305 -19.8428 -1.82715v9.66016zM415.136 195.395
c0 11.1357 -3.22754 20.1035 -9.66016 26.8916c-6.44043 6.78809 -14.6211 10.1826 -24.542 10.1826c-21.9316 0 -44.7773 -18.1055 -68.5361 -54.3066c-23.7598 -36.2041 -35.6387 -70.8496 -35.6387 -103.913c0 -13.0547 2.87207 -23.0195 8.61523 -29.8955
c5.74414 -6.88184 12.6201 -10.3125 20.626 -10.3125c18.1025 0 40.8174 19.582 68.1445 58.7451c27.3203 39.1631 40.9912 73.3662 40.9912 102.608z" />
    <glyph glyph-name="dgm-fork" unicode="&#xe6e7;" 
d="M512 382.482h-262.857v-102.607h262.857v-36.5713h-262.857v-102.59h262.857v-36.5713h-262.857v-102.606h262.857v-36.5723h-262.857v-28.9639h-51.0469v237.714h-198.096v36.5723h198.096v237.714h51.0469v-28.9463h262.857v-36.5713z" />
    <glyph glyph-name="dgm-header" unicode="&#xe6e8;" 
d="M512 312.674h-512v135.326h512v-135.326zM512 -41.3496v-22.6504h-512v22.6504h512zM512 87.8682v-51.4082h-512v51.4082h512zM512 247.171v-90.7246h-512v90.7246h512z" />
    <glyph glyph-name="dgm-if-else" unicode="&#xe6e9;" horiz-adv-x="479" 
d="M248.686 309.028l-51.2002 -58.5137l-54.8574 62.1709h36.5713v135.314h32.915v0v0v-65.8281v-73.1436h36.5713zM435.199 74.9717v36.5713h-73.1426c-40.2285 -25.6006 -102.4 -69.4854 -146.285 -95.0859v-29.2568h40.2285l-58.5146 -51.2002l-54.8574 47.543h43.8857
v29.2568c-51.2002 29.2578 -131.657 80.457 -186.514 113.372c32.9141 21.9424 193.828 124.343 193.828 124.343s128 -84.1143 164.571 -106.058h73.1426v32.9141l47.543 -51.1992zM321.828 126.172c-40.2285 25.5996 -124.343 76.7998 -124.343 80.457
c0 0 -91.4287 -58.5146 -124.343 -76.8008c3.65723 -3.65625 7.31445 -3.65625 7.31445 -7.31348c32.9141 -21.9434 80.457 -51.2002 117.028 -73.1436c36.5713 21.9434 84.1143 51.2002 117.028 73.1436c3.65723 3.65723 3.65723 3.65723 7.31445 3.65723z" />
    <glyph glyph-name="dgm-import" unicode="&#xe717;" horiz-adv-x="513" 
d="M7.31445 316.343c3.65723 3.65723 7.31445 3.65723 7.31445 7.31445c3.65723 3.65723 7.31348 3.65723 10.9707 7.31445c3.65723 0 7.31445 3.65723 7.31445 3.65723c14.6289 3.65723 29.2578 7.31348 43.8857 10.9707h25.6006c14.6279 0 29.2568 0 43.8857 -3.65723
c7.31348 -3.65625 18.2852 -7.31348 29.2568 -10.9707c7.31445 0 14.6289 -3.65723 21.9424 -7.31445c7.31445 -3.65723 18.2861 -7.31445 25.6006 -10.9717c0 0 7.31445 -3.65723 14.6279 -7.31445c10.9717 10.9717 25.6006 29.2578 32.915 32.915
c3.65723 -7.31445 29.2568 -153.601 29.2568 -160.915c-10.9717 0 -149.943 14.6289 -157.257 14.6289c3.65723 3.65723 21.9424 25.5996 32.9141 40.2285c-3.65723 3.65723 -7.31445 10.9717 -14.6289 14.6289c-3.65723 3.65723 -10.9717 10.9707 -14.6279 14.6279
c0 0 -3.65723 3.65723 -7.31445 3.65723c-3.65723 7.31445 -10.9717 10.9717 -18.2861 14.6289c0 0 -3.65723 3.65723 -7.31445 3.65723c-3.65723 3.65723 -7.31348 3.65723 -10.9707 7.31445c-7.31445 0 -14.6289 3.65723 -21.9434 7.31445h-3.65723
c-7.31445 3.65625 -14.6279 3.65625 -21.9424 7.31348c-14.6289 0 -29.2578 3.65723 -40.2285 3.65723h-14.6289c0 3.65723 3.65723 7.31445 7.31445 7.31445zM58.5146 272.457c3.65723 0 3.65723 0 0 0c7.31348 -3.65723 14.6279 -7.31445 21.9424 -10.9717
c3.65723 0 7.31445 -3.65723 10.9717 -7.31348c-3.65723 -14.6289 -7.31445 -32.915 -7.31445 -47.543v-36.5713c7.31445 -43.8857 21.9434 -84.1152 54.8574 -117.029c73.1426 -80.457 197.485 -80.457 274.285 -7.31445c76.8008 76.8008 80.457 204.801 3.65723 285.258
c-62.1709 65.8281 -157.257 80.457 -234.057 36.5713c-14.6289 7.31445 -29.2578 10.9717 -43.8857 14.6289c91.4287 73.1426 223.086 62.1709 307.2 -25.6006c91.4277 -91.4287 87.7705 -245.028 -3.65723 -336.457c-91.4287 -91.4287 -237.715 -91.4287 -329.144 3.65723
c-65.8281 69.4854 -84.1143 168.229 -54.8564 248.686z" />
    <glyph glyph-name="dgm-lifeline" unicode="&#xe6ea;" 
d="M512 355.851v-146.351h-237.518v-221.714h-36.5713v221.714h-237.911v146.351h512z" />
    <glyph glyph-name="dgm-logger" unicode="&#xe6eb;" 
d="M484.571 246.843h-457.143v-109.686h457.143v109.686zM512 274.271v0v-164.543h-512v164.543h512z" />
    <glyph glyph-name="dgm-resource" unicode="&#xe6f6;" horiz-adv-x="316" 
d="M61.4414 -36.209c-2.92676 -17.5518 -16.0928 -27.791 -32.1807 -27.791c-17.5576 0 -29.2607 14.624 -29.2607 32.1758c0 10.2393 40.958 250.151 40.958 298.433c0 64.3623 -13.1611 89.2324 -32.1816 108.247c-7.3125 5.85449 -8.77637 14.6299 -8.77637 23.4062
c0 17.5566 14.6299 32.1865 30.7178 32.1865c27.7969 0 68.7598 -49.7383 65.833 -122.883c32.1816 96.5498 111.175 140.435 184.318 140.435c19.0156 0 35.1094 -13.166 35.1094 -32.1816c0 -17.5566 -13.167 -27.7959 -30.7178 -29.2539
c-152.138 -8.78223 -181.398 -187.247 -215.043 -374.493z" />
    </font>
</defs>
</svg>
